<svg xmlns="http://www.w3.org/2000/svg" fill="none" viewBox="0 0 512 512">
  <style>
    .logo-dark {
      fill: var(--theme-font-color-base);
    }
  </style>
  <path fill="#F5D412" fill-rule="evenodd" d="M66.859 197.442c0 1.177.107 2.354.107 3.424 0 .642.107 1.177.107 1.819.107 1.07.107 2.14.214 3.21 0 .642.107 1.177.214 1.819.107 1.07.214 2.247.32 3.317.108.535.108 1.07.215 1.605.107 1.284.32 2.568.535 3.853 0 .321.107.749.107 1.07.535 3.317 1.07 6.634 1.819 9.951 0 .214.107.428.107.749l.963 4.173c.107.321.214.642.214 1.07l.963 3.853c.107.321.214.642.214.963.321 1.391.75 2.675 1.177 4.066.107.214.107.428.214.642 1.926 6.527 4.28 12.84 6.955 18.94 0 .107.107.214.107.321.642 1.391 1.284 2.889 1.927 4.28 0 .107.107.214.214.321.642 1.498 1.39 2.889 2.14 4.387v.107a187.15 187.15 0 0 0 13.375 22.364c.535-4.708.535-9.523-.428-14.339-.749-3.638-.749-7.383-.963-11.128-.32-6.527-.214-12.948-3.959-18.833-2.247-3.638-1.605-6.099 2.033-8.56 2.782-1.926 4.601-4.281 5.671-7.277 1.07-3.21 3.318-5.029 6.314-5.778 7.276-1.712 14.445-3.638 21.829-4.708 7.383-1.07 14.017-3.103 19.796-7.918 1.819-1.606 2.782-4.923 1.605-7.919-1.177-2.782-.428-5.136 1.391-7.169.642-.642 2.14-1.284 2.782-.963 1.819.749 2.782-.107 3.959-1.177 2.033-1.926 4.28-2.247 6.42 0 1.605 1.605 2.568.642 3.638-.642.856-.963 1.606-2.461 2.676-2.782 3.959-.963 2.889-3.318 2.247-5.993-.749-2.889-.963-5.885-1.177-8.881-.107-1.284.107-2.675.535-3.852.749-2.461 2.996-2.889 4.601-1.07 1.284 1.391 2.033 2.996 2.033 5.029.107 2.247.856 4.173 3.959 4.28 2.461.107 4.387 2.14 4.173 4.494-.214 3.745 1.712 5.565 4.602 6.849 1.391.642 1.819 1.284 2.033 2.889a51.671 51.671 0 0 0 1.926 9.844c.321.963 1.498 2.033 2.568 2.461 1.177.428 2.568.428 3.852.321 8.239-.856 16.372-1.712 24.611-1.07 1.391.107 2.889-.535 4.387-.642 9.203-.963 16.372 3.638 23.327 8.882 1.284.963 1.605 2.033.749 3.424-2.033 3.424-.963 5.992 1.82 8.346.856.749 1.605 1.605 2.354 2.354 1.498 1.498 1.284 2.996 0 4.387-.642.75-1.284 1.285-1.926 2.034-1.713 1.926-1.713 2.14.856 3.424 4.28 2.14 8.667 4.173 13.054 6.313.856.428 1.712.749 2.461 1.284 2.461 1.498 3.424 3.638 2.033 6.099-2.996 5.458-2.568 11.129-1.926 16.907.321 2.568 0 5.243 0 7.811 0 3.639.749 4.602 4.173 4.067 5.886-.856 11.664-2.14 17.549-3.103 3.317-.535 6.635-1.071 9.952-.964 8.239.107 16.585 0 24.504 2.462 10.272 3.21 20.438 6.634 30.496 10.486 6.635 2.568 13.269 4.815 20.331 5.778 2.247.321 4.387.749 6.634 1.177 23.328-30.282 37.131-68.269 37.131-109.466 0-13.375-1.498-26.323-4.28-38.842v-.107c-.214-1.177-.535-2.354-.856-3.532 0-.107 0-.214-.107-.214-2.14-8.667-4.815-17.12-8.239-25.253v-.107c-.428-1.177-.963-2.247-1.392-3.424a195.116 195.116 0 0 0-10.165-20.01c0-.107-.107-.107-.107-.214-.642-.963-1.177-2.033-1.819-2.996-.107-.107-.107-.214-.214-.32-.642-.964-1.284-2.034-1.926-2.997v-.107c-3.317-5.136-6.956-10.058-10.808-14.767-.107-.107-.214-.214-.321-.428-.642-.856-1.391-1.605-2.033-2.46-.107-.215-.321-.322-.428-.536-.642-.749-1.391-1.605-2.033-2.354-.107-.214-.321-.321-.428-.535-.749-.75-1.391-1.605-2.14-2.354-.107-.107-.107-.214-.214-.214-3.21-3.424-6.42-6.742-9.844-9.952l-.642-.642c-.642-.642-1.392-1.284-2.034-1.926-.321-.214-.642-.535-.856-.749-.642-.642-1.391-1.177-2.033-1.819-.321-.32-.642-.535-.963-.856-.642-.535-1.391-1.177-2.033-1.712-.321-.214-.642-.535-.963-.749-.749-.535-1.391-1.177-2.14-1.712-.214-.214-.428-.321-.642-.535-2.461-1.926-4.922-3.745-7.49-5.457-.428-.321-.749-.535-1.177-.856-.642-.428-1.284-.856-2.034-1.284-.428-.322-.963-.642-1.391-.963l-1.926-1.285c-.535-.32-.963-.642-1.498-.963-.642-.428-1.284-.749-1.926-1.177l-1.605-.963c-.642-.32-1.284-.749-1.926-1.07a24.454 24.454 0 0 0-1.712-.963 16.108 16.108 0 0 1-1.819-1.07c-.749-.428-1.498-.856-2.354-1.177-.856-.428-1.819-.963-2.782-1.391l-1.926-.963c-.536-.321-1.178-.535-1.82-.856-.642-.321-1.284-.642-1.926-.856-.642-.321-1.177-.535-1.819-.856-.642-.321-1.284-.535-1.926-.856-.642-.214-1.177-.535-1.819-.75-.642-.32-1.391-.534-2.033-.855-.535-.214-1.177-.428-1.712-.75-.749-.32-1.498-.534-2.247-.855l-1.605-.642-2.889-.963c-.321-.107-.749-.214-1.07-.428-1.284-.428-2.462-.856-3.746-1.177-.535-.108-.963-.322-1.498-.428-.856-.215-1.712-.535-2.568-.75-.535-.107-1.07-.32-1.605-.428-.749-.213-1.605-.427-2.354-.642-.535-.107-1.177-.32-1.712-.428-.749-.214-1.605-.428-2.354-.535-.535-.107-1.177-.214-1.712-.428-.856-.214-1.712-.32-2.568-.535l-1.605-.32c-.963-.215-1.926-.429-2.997-.536-.428-.107-.749-.107-1.177-.214l-4.173-.642c-.321 0-.642-.107-.963-.107-1.07-.107-2.14-.32-3.21-.428-.535-.107-1.07-.107-1.498-.214-.856-.107-1.819-.214-2.675-.32-.535-.108-1.177-.108-1.712-.215-.856-.107-1.712-.214-2.568-.214-.535 0-1.177-.107-1.712-.107-.856-.107-1.82-.107-2.676-.214-.535 0-1.07-.107-1.605-.107-.963 0-1.926-.107-2.889-.107h-1.391c-1.498 0-2.889-.107-4.387-.107-99.194 0-179.661 80.468-179.661 179.661 0 1.712 0 3.425.107 5.03 0 .642.107 1.177.107 1.712Z" clip-rule="evenodd"></path>
  <path class="logo-dark" fill="#000" fill-rule="evenodd" d="M108.805 231.041c-1.605.642-1.07 2.354.856 2.568 1.07.107 2.354.107 3.317-.214 14.232-5.243 29.961-7.276 45.263-9.844 17.228-2.889 34.67-4.601 52.004-6.955 5.779-.749 11.557-1.926 17.335-2.997.749-.107 1.284-.749 1.926-1.177-.749-.107-1.391-.428-2.14-.428-3.317.214-6.527.535-9.844.749v.321c-2.675.214-5.351.321-8.026.642-17.334 2.462-34.669 4.602-51.79 7.384-14.232 2.247-28.249 5.136-42.374 7.918-2.247.535-4.494 1.284-6.527 2.033Zm1.284 19.689c-.856.214-1.819.856-2.14 1.712-.321.856-.107 2.033 0 2.996.107 3.531.214 7.063.428 10.701.535 10.165 1.177 20.331 1.819 30.496 0 .642.107 1.391.321 2.033l.749.428c.107-.321.214-.642.214-.963.107-1.391.214-2.675.214-4.066.214-12.198.321-24.397.535-36.596 0-1.712-.107-3.424-.428-5.029-.214-.749-1.284-1.819-1.712-1.712Zm117.919 29.426c.107 1.499.428 2.997.749 4.495 0 .214.535.321 1.07.642.107-1.07.214-1.926.214-2.782.535-13.804 1.177-27.608 1.712-41.518.107-1.498.107-2.996.107-4.494 0-1.499-.749-2.569-2.354-2.676-1.819-.107-2.247 1.177-2.247 2.676 0 3.638.321 7.169.107 10.807-.535 10.914-.428 21.936.642 32.85Zm-44.193-49.65c7.276-1.07 14.553-2.461 21.829-3.745.642-.107 1.177-.642 1.819-1.07-.642-.107-1.391-.321-2.033-.214-1.712.214-3.424.856-5.243.963-22.257 2.033-44.3 5.136-66.343 8.346-3.745.535-7.491 1.391-11.129 2.354-.856.214-1.391 1.285-2.14 1.927.856.321 1.712.642 2.14.856 1.498-.214 2.568-.214 3.638-.428 10.059-1.713 20.01-3.532 30.069-5.137 9.202-1.391 18.298-2.461 27.393-3.852Zm-49.222 17.228c-.535.107-1.07.963-1.284 1.605-.214.642-.107 1.498-.107 2.247l.642 33.921c0 1.819.321 3.745.642 5.564 0 .321.321.642.535.963.214-.321.642-.642.749-.963.214-1.07.535-2.247.535-3.317.428-7.169.749-14.339 1.07-21.401.214-4.922.428-9.845.535-14.66 0-1.07-.321-2.14-.535-3.531-1.07-.214-2.033-.535-2.782-.428Zm19.154-35.419c3.852-.749 7.704-1.391 11.556-2.247 5.244-1.177 10.38-2.354 15.623-3.638l.428-.428-.535-.321c-.642 0-1.284.107-1.819.214-6.099.856-12.199 1.712-18.405 2.461-2.675.321-5.457.642-8.132 1.177-.749.107-1.498.535-2.247.856.107.642.107 1.177.321 1.605.321.321.856.642 1.284.642.749-.107 1.284-.214 1.926-.321Z" clip-rule="evenodd"></path>
  <path class="logo-dark" fill="#000" fill-rule="evenodd" d="M238.281 444.302c3.852-.321 7.597-.642 11.449-.856 2.14-.107 3.852.428 5.35 2.247 5.137 6.206 7.812 8.132 8.561 16.051.856 8.881 3.638 13.054 3.21 21.936-.107 1.498.535 2.461 1.819 3.103.535 0 1.07 0 1.605-.107.428-.963.963-1.819 1.284-2.782.642-1.498.963-2.996 1.712-4.494 2.568-5.244 5.564-10.273 7.705-15.516 2.568-6.313 4.066-5.457 7.597-11.236 3.317-5.457 5.671-7.49 8.881-12.947 2.033.535 4.066 1.284 6.207 1.712 4.815 1.07 9.202-.535 13.161-2.996 3.852-2.461 7.597-5.244 11.45-7.705.856-.535 1.605-1.07 2.461-1.605 0 5.243.321 10.38.535 15.623.107 1.926-.642 2.889-2.461 3.531-2.14.749-4.174 1.819-6.1 2.996-1.712 1.07-1.926 2.782-.856 4.494 1.498 2.355 3.318 3.104 5.244 2.248.642-.321 1.498-.428 2.247-.642 1.391-.429 2.033-.001 2.033 1.498-.107 2.461-.107 4.922-.214 7.276-.107 1.926-.428 3.852-.749 5.778a142.758 142.758 0 0 0-3.317-2.033c-.214.214-.428.428-.642.535 2.568 3.745 6.099 7.276 5.029 12.627-.749-.856-1.498-1.605-2.14-2.354-.214.107-.428.321-.642.428l.963 1.926c.428.963 1.07 1.926 1.177 2.996.214 1.605.749 3.103 2.033 4.173 1.07.963 1.07 1.712-1.926 2.568-4.066 1.177-7.277 3.638-10.487 5.992-.749.642-1.712 1.605-.749 2.569.856.856 2.14 2.033 2.996 1.926 2.676-.428 5.458-1.07 7.812-2.355 5.457-2.889 11.984-4.173 17.014-5.564 1.605-.428 3.21-.642 4.922-.963 5.885-1.177 11.77-2.461 17.656-3.424 4.601-.749 9.202-1.07 13.91-1.498 7.277-.749 14.446-1.605 21.722-1.926 6.206-.214 12.52.321 18.726.321 1.712 0 3.531-.856 5.136-1.712.642-.321 1.07-1.926.856-2.782-.428-1.926-2.996-3.424-5.029-3.103-.856.107-1.605.214-2.461.214-10.38.428-20.759.856-31.031 1.391-2.569.107-2.89 0-2.676-2.676.321-3.959.856-7.811 1.177-11.77.321-5.136.428-10.273.536-15.516.321-8.346.535-16.585.856-24.932.107-3.424.107-6.955.107-10.379 0-4.388-.214-8.668-.321-13.055 0-1.498.428-2.354 2.14-2.354 4.28-.107 8.56-.107 12.84-1.177 7.705-1.712 15.088-4.173 21.936-8.239 1.07-.642 2.033-.75 2.782.535.535.963 1.177 1.819 1.605 2.782.749 1.391 2.997 2.568 4.495 2.14 1.926-.535 1.498-2.247 1.284-3.531-.214-1.177-.856-2.354-1.391-3.532-.535-1.07-.214-1.605.642-2.461 1.926-1.926 4.066-4.173 4.815-6.634 1.284-4.173 1.926-8.667 2.14-12.948.321-7.49.214-14.98.214-22.471 0-3.317-.214-6.634-.214-9.951 0-1.391.428-2.782.428-4.173.107-3.317.214-6.635.214-9.952 0-1.605.642-1.926 2.033-1.391.428.214.749.428 1.177.642 3.745 1.391 4.28 1.07 4.601-2.675.214-2.889-.963-4.387-3.852-4.708-2.675-.321-4.28-1.926-4.387-4.708-.428-8.668-.749-17.228-1.177-25.895 0-1.07.107-1.713 1.391-2.141 1.177-.428 2.568-1.07 2.247-2.675-.321-1.712.107-3.852-2.14-4.708-2.033-.749-2.568-2.354-2.568-4.173 0-2.675.321-5.243.214-7.918-.107-5.458-.214-11.022-.535-16.479-.321-5.136-1.07-10.273-1.177-15.409-.214-7.811 0-15.516 0-23.327 0-5.029-.214-9.951-.321-14.981 0-6.741.107-13.589 0-20.331-.107-4.066-.642-8.132-.963-12.198-.214-1.712.321-2.675 2.247-2.782 1.391-.107 2.675-.214 3.959-.535 1.712-.321 3.103-2.247 2.782-3.959-.321-2.034-1.926-3.532-3.852-3.211-1.177.214-2.354.642-3.531.749-2.568.321-2.889.214-3.103-2.247-.963-7.811-3.531-15.087-7.17-22.043-1.819-3.424-4.173-5.457-8.132-5.243-1.177.107-2.461-.107-3.531-.535-2.675-1.177-4.922 0-6.634 1.498-1.713 1.498-2.997 3.638-4.067 5.671-.749 1.498-1.605 1.712-2.996 1.284-2.675-.642-3.852.535-3.21 3.211.107.535.535 1.177.963 1.605 2.14 1.926 2.461 4.173 2.033 6.848a47 47 0 0 0-.642 9.523c.214 6.421.856 12.841 1.177 19.368.428 8.561.535 17.121.963 25.574.428 10.38.963 20.866 1.605 31.246.107 1.498-.428 2.247-1.926 2.461-1.926.214-3.852.428-5.671.749-2.033.321-3.852 1.712-3.317 4.173.428 2.247 2.14 3.638 4.387 2.996 1.819-.428 3.531-1.177 5.243-1.605 1.605-.428 2.461.107 2.675 1.926.535 5.886 1.391 11.771 1.926 17.763.964 11.236 1.82 22.471 2.676 33.707.428 5.457.642 10.914.856 16.264 0 .75-.107 1.392-.214 2.783-.963-1.177-1.498-1.712-2.033-2.462-.857-1.177-2.141-1.605-3.211-.856-.642.535-1.07 2.034-.749 2.783.749 2.033 1.498 4.28 2.889 5.885 1.927 2.247 2.997 4.494 2.676 7.597-.642 6.42-.963 12.841-1.605 19.261-.107 1.391-.535 2.782-.856 4.173-.215 0-.429.107-.643.107-.428-.749-1.177-1.391-1.177-2.14 0-2.354-1.819-3.103-3.424-3.959-2.354-1.284-4.28 0-4.066 2.675 0 .749.321 1.605.749 2.247 1.07 1.819 2.354 3.638 3.531 5.457.856 1.392 1.07 2.462-.749 3.639-4.066 2.461-8.453 3.852-13.054 4.601-1.712.321-2.354-.214-2.247-1.926.214-2.996.428-5.993.535-8.989v-5.136c1.07-1.177 2.033-2.354 3.103-3.531.642-.749 1.07-1.498 1.605-2.247 0-.642 0-1.284-.107-1.819-1.712-2.033-2.782-2.247-4.601-1.284v-7.491c.107-6.206.642-12.412.428-18.618-.321-9.203-1.284-18.405-1.819-27.608-.857-15.194-.643-30.282-.643-45.477.107-20.973-.428-41.946-.749-62.919-.107-8.346-.107-16.585-1.284-24.825-1.498-11.342-.856-22.899-3.21-34.134-.749-3.318-1.284-6.742-2.14-10.059-.856-3.638-.749-4.28 2.354-6.527.321-.214.749-.535 1.07-.75 1.177-1.07 1.926-3.851 1.284-5.242-.428-1.07-1.284-1.498-2.354-.75a58.174 58.174 0 0 0-4.066 3.104c-1.177.963-2.033 1.07-2.996-.428-1.498-2.14-3.103-4.174-4.922-6.1-2.996-3.103-6.528-5.778-10.915-6.099-5.029-.428-10.165-.32-14.98 1.177-1.606.535-3.318 1.605-4.281 2.89-1.819 2.782-3.531 5.778-4.708 8.88-2.247 5.993-4.494 12.092-6.099 18.299-1.498 5.564-2.782 11.235-3.21 16.906-.642 8.775-.535 17.549-.535 26.217 0 3.959.535 7.918.642 11.877.107 1.926-.321 3.959-.321 5.885.107 5.351.214 10.808.428 16.158.107 4.173.321 8.453.535 12.627.321 5.35.749 10.7.963 16.05.107 1.284-.428 2.675-.321 3.96.107 2.782.535 5.457.535 8.239-.107 5.564-.321 11.128-.535 16.693-.107 1.391-.749 2.354-2.14 2.889-2.461.963-4.495 2.354-5.672 5.029-.642 1.498-.428 2.568.642 3.21.856.535 2.248.428 3.318.321.642 0 1.177-.749 1.819-.963.963-.428 1.605 0 1.605 1.177-.107 5.778-.107 11.557-.214 17.228 0 .535-.749 1.391-1.284 1.498-3.317.642-6.528.107-9.203-2.14-2.675-2.247-3.531-5.35-3.531-8.56 0-5.993.321-11.985.749-17.977.321-4.922.963-9.952 1.391-14.874.428-5.778 1.177-11.556 1.07-17.335-.214-15.194-.642-30.389-1.391-45.477-.321-6.313-1.284-12.626-2.568-18.726-.642-3.103-2.14-6.099-3.745-8.988-1.391-2.568-1.712-3.103-.321-5.564.749-1.284 1.391-2.675 2.033-4.173.856-2.141.107-3.746-2.14-4.281-.535-.107-1.498.214-1.926.642-.749.963-1.284 2.033-1.712 3.104-1.284 2.889-2.033 2.996-4.601 1.177-2.783-2.141-5.672-4.174-9.096-4.495-4.708-.428-9.416-.321-13.804 2.033-2.461 1.285-4.601 2.676-4.28 6.1.107 1.07-.214 2.14-.642 3.21a38.998 38.998 0 0 0-2.247 14.874c.642 11.235 1.391 22.471 2.033 33.706.214 3.21-.321 6.42-.107 9.524.428 8.132 1.177 16.264 1.605 24.504.535 11.021.749 22.043 1.498 32.957.321 5.778.214 11.45.321 17.228-2.889-9.631-5.35-19.368-7.811-29.105-.321-1.07-1.07-2.033-1.605-2.997-.642 0-1.284 0-1.819.107-.428 1.071-1.07 2.141-1.391 3.211-2.782 10.272-5.457 20.545-8.133 30.817-.107.321-.214.642-.321 1.284-1.284-3.21-2.354-6.206-3.638-9.095.321-4.067.749-8.133.963-12.199.214-5.136.107-10.272.107-15.409 0-3.21-.107-6.099 2.996-8.667 2.783-2.247 2.141-4.708-.749-7.062-4.815-3.96-4.815-3.959-2.247-9.203 1.605-3.424 1.498-4.173-1.712-5.778-1.284-.642-2.782-1.07-4.173-1.498-5.029-1.605-10.272-1.926-15.516-2.675-10.165-1.391-19.903-.856-29.747 2.033-3.21.963-6.634 1.498-9.951 1.712-4.388.214-5.993-1.284-5.993-5.564 0-2.782-1.498-5.458-.214-8.347 1.498-3.531-2.247-5.136-3.21-7.811v-.535c-.856-2.996-2.568-4.815-5.029-3.852-4.066 1.605-3.852-.642-4.28-3.21-.214-1.605-1.284-3.103-1.926-4.709-1.391-3.317-2.462-3.852-5.458-2.782-3.531 1.177-4.387 2.568-3.317 5.886.749 2.461 1.926 4.922 2.782 7.383 1.284 3.317.856 4.494-2.247 6.741-.856.642-1.498 1.605-2.247 2.461-1.391 1.819-2.568 3.317-4.922.749-.749-.749-3.424-1.177-4.066-.535-2.14 2.033-4.388 1.712-6.849 1.712-3.317 0-3.852.642-3.959 4.067 0 1.07-.107 2.568.535 3.21 1.926 2.247-.321 4.387 0 6.42.535 3.531-2.247 3.745-4.28 4.815-.749.428-1.177 1.498-1.926 1.926-1.391.856-2.889 1.819-4.494 2.14-6.421 1.285-13.055 2.141-19.475 3.639-5.457 1.284-10.808 3.21-16.05 5.243-3.64 1.498-3.96 2.996-2.569 6.634 1.177 3.21 1.177 3.531-1.605 5.671-1.498 1.177-3.21 1.926-4.708 3.104-2.247 1.712-2.354 3.531-.321 5.671 1.177 1.177 2.996 2.14 3.53 3.531 1.178 3.103 2.355 6.42 2.569 9.737.321 6.849.107 13.697 0 20.438-.107 5.886-.642 11.664-.856 17.549-.107 1.926 0 3.852-.107 5.671-.107 1.391 2.461 6.635 3.317 4.174 1.177-3.318 1.07-7.063 1.177-10.701.214-6.206-.642-12.626.428-18.726 1.712-9.844-.749-19.154-1.926-28.57-.107-1.284-1.391-2.568-2.568-3.424-3.531-2.782-3.638-2.675.428-5.136.963-.535 2.033-.963 2.89-1.713 2.246-2.033 3.423-4.387 2.567-7.597-.963-3.424-.749-3.745 2.247-4.815 1.926-.642 3.959-1.391 5.993-1.819 8.453-1.819 16.906-3.745 25.467-5.136 2.996-.535 6.099.107 7.597-3.532.321-.856 1.712-1.391 2.782-1.712 2.782-.749 4.173-2.14 3.317-5.243-.214-.642-.214-1.605.107-2.247 1.605-2.675 1.07-5.029-.856-7.276-.321-.428-.428-1.712-.107-2.033.642-.535 1.712-.856 2.461-.642.856.107 1.713.856 2.462 1.391 1.391 1.07 2.675.963 3.21-.642.963-2.462 1.819-2.033 3.638-.749 3.745 2.568 4.815 2.033 7.276-2.355.428-.749 1.284-1.926 1.819-1.819 3.531.642 3.745-1.926 3.852-4.173.107-3.531.535-7.169-1.07-10.593-.428-.963-.856-2.14-.963-3.21-.107-.535.428-1.178.642-1.82.428.321 1.07.642 1.177 1.071.535 2.14.963 4.387 1.499 6.527.642 2.461 3.638 5.029 5.136 4.066 2.568-1.712 2.782-.428 3.317 1.605.321 1.07 1.819 1.926 2.675 2.889.428.535 1.177 1.391.963 1.819-2.033 4.173.749 8.133.428 12.306-.214 4.28 1.926 5.992 6.206 6.206 5.672.321 11.343-.535 16.693-2.14 6.313-1.819 12.52-2.782 19.368-2.675 7.276-.428 14.66 1.177 21.936 3.317 2.033.535 2.782 1.07 1.712 3.424-.963 2.14-1.284 4.815-.856 7.063.321 1.391 2.568 2.461 3.852 3.638.428.321.856.749 1.284 1.07.749.749 1.284 1.819.107 2.247-3.852 1.605-3.424 4.922-3.424 8.132-.107 8.24.321 16.372-.428 24.611-1.926-4.28-3.959-8.56-5.885-12.84-.749-1.712-1.926-2.033-3.317-1.284-1.498.749-1.926 1.926-.963 3.424 1.177 1.926 1.07 3.959.856 5.885-.856 11.557-1.926 23.006-2.889 34.563-.107 1.177-.214 2.354-.214 3.531-1.606.321-3.104.535-4.709.856-6.955 1.819-14.231 3.103-21.829 4.066-1.712-1.819-3.424-3.638-5.35-5.243a74.964 74.964 0 0 1-4.28-3.959l.321-.535c.535-8.133 1.177-16.158 1.284-24.29.107-5.672-.535-11.45-.856-17.121-.107-1.177-.321-2.568-.963-3.638-.321-.535-1.498-.535-2.568-.963-.214 1.177-.428 1.926-.321 2.675.321 2.996.856 5.992.963 8.988.428 10.38.856 20.652 1.177 31.031 0 .964 0 1.927.107 2.89v.107c-6.313-5.993-12.306-12.306-18.512-18.405-.963-.963-1.819-2.461-3.638-1.498-1.07.642-1.498 2.14-.642 4.066 1.391 3.103 2.782 6.099 4.601 8.988 4.066 6.314 8.239 12.413 12.306 18.619-2.89.321-5.672.535-8.561.856-1.605-.963-3.103-1.819-4.708-2.782-4.708-2.568-8.881-5.671-12.734-9.202.642-7.491 1.391-15.088 1.605-22.578.214-5.565-.321-11.236-.642-16.907 0-.856-.963-1.712-1.712-2.247-.321-.214-1.712.107-2.675.321-.856.856-1.177 2.782-1.07 3.745.321 4.494.642 8.774.749 13.269.214 7.49 1.284 14.98 1.712 22.471-2.461-2.462-4.815-5.03-6.955-7.705-.214-.321-.428-.856-.749-.963-.749-.321-1.712-.856-2.461-.749-1.07.107-1.605 1.177-1.498 2.247.321 1.819.642 3.745 1.391 5.35a118.998 118.998 0 0 0 9.202 17.549c-3.103.321-6.206.642-9.416.963-33.386 3.853-66.557 10.38-99.408 20.01-3.959 1.177-7.918 2.675-11.556 4.173-.963.428-2.033 1.927-1.605 2.141.642.321 2.889.321 4.28-.107 5.136-1.606 10.272-3.425 15.409-5.137 19.474-6.634 38.842-8.453 58.317-11.556 15.837-2.568 31.674-4.173 47.403-5.672 1.177 1.606 2.355 3.318 3.639 4.923a32.742 32.742 0 0 0 3.852 3.852c4.922 4.494 8.56 10.058 11.449 15.944 2.675 5.457 5.03 11.128 7.17 16.799 3.103 8.561 7.704 16.372 12.305 24.184a440.369 440.369 0 0 1 4.066 6.527c-2.14-1.926-4.066-3.531-5.885-5.243-11.235-10.487-23.541-19.475-37.773-25.682-3.424-1.498-7.062-2.568-10.7-3.745-4.066-1.284-8.025-.963-11.771 1.07-2.996 1.605-5.885 3.424-8.774 5.137a6.132 6.132 0 0 0-1.177 1.177c-.856.963-.856 2.14 0 3.103.856.963 2.033 1.07 2.996.214 2.033-1.819 4.387-1.605 6.741-1.284 5.565.856 10.487 3.317 15.302 6.206 7.062 4.173 13.162 9.523 19.368 14.767l18.298 15.729c.321.321.642.642.856 1.284-2.354-.749-4.815-1.391-7.063-2.354-3.103-1.391-5.992-2.996-8.988-4.601-.856-.428-1.177-1.605-2.033-2.033-.963-.535-2.033-.963-3.103-.963-1.177 0-2.033.963-2.033 2.14 0 1.284.214 2.568.749 3.745 2.889 6.42 7.062 11.985 11.984 17.121l.856.856c-.856.214-1.498.428-2.14.642-2.247.749-4.494 1.284-6.634 2.14-2.889 1.07-5.778 1.498-8.881.963a8.699 8.699 0 0 1-3.104-1.284c-.963-.642-1.819-.856-2.889-.214-1.07.749-1.177 1.712-.856 2.889 1.498 4.708 5.671 7.919 10.594 7.919 3.638 0 7.276-.107 10.914-.107 2.354 0 4.28.856 5.029 3.531-1.819.321-3.745.535-5.564.856-7.49 1.498-14.445 4.066-20.438 8.988-3.103 2.461-5.564 5.457-6.955 9.203-2.461 6.634-7.062 11.663-12.199 16.264-2.461 2.247-5.243 4.281-7.811 6.421-.535.428-.963.963-1.498 1.498 0 .642 0 1.284.107 1.819 1.177 1.391 2.675 1.498 4.173.856 4.387-2.033 8.668-4.066 12.948-6.313 11.77-5.993 23.541-12.092 35.311-18.191 5.993-3.103 12.413-4.173 19.154-3.745.535 0 1.07.107 1.605.107-1.07 2.461-2.033 4.815-3.103 7.169-1.07 2.14-2.247 4.173-4.601 5.243-.535.214-.856 1.284-1.177 1.926a23.562 23.562 0 0 0-.963 2.247c1.819 1.07 3.638 1.07 5.564.749 3.745-.642 7.276-2.14 10.487-4.173 6.42-3.317 13.91-4.815 21.722-5.564Zm92.131-90.098c.214 7.383.214 14.873.321 22.257l-2.247 2.568c-1.07 1.177-3.103 1.391-4.709 2.033-.107-.107-.214-.321-.321-.428.749-2.675 1.498-5.243 2.141-7.918 1.605-6.1 3.21-12.306 4.815-18.512Zm-4.173-24.718c.642-1.712 1.284-3.531 2.033-5.244.428.321.642.963.749 1.82.107 2.996.321 5.992.535 8.988-1.926 1.177-4.066 2.461-6.314 3.852 1.07-3.317 1.927-6.42 2.997-9.416Zm-17.228-7.384c.321.107.749.107 1.07.214a79.353 79.353 0 0 0-5.35 21.936c-.214 2.354-.749 4.709-.963 7.063-.214 1.819-1.713 2.461-2.997 3.424.321-1.926.642-3.745.856-5.671 1.285-9.31 4.709-18.084 7.384-26.966ZM199.973 308.62a65.682 65.682 0 0 0-7.384-6.1c1.713-.214 3.318-.428 5.03-.642 1.926 2.997 3.638 5.993 5.457 8.882.214.428.428.749.428 1.391l-3.531-3.531Zm37.559-12.627c.107 1.07.321 2.247.642 3.317-.107.107-.214.107-.321.214-.856-1.07-1.606-2.033-2.462-3.103.749-.214 1.499-.321 2.141-.428Zm-7.598 1.284c.107 10.059.107 20.01.214 30.069-.107 0-.214.107-.428.107a19.051 19.051 0 0 0-.749-1.391c-3.317-6.528-6.527-13.055-10.058-19.475-1.391-2.461-2.889-4.816-4.602-7.063a391.817 391.817 0 0 0 15.623-2.247Z" clip-rule="evenodd"></path>
  <path fill="#C7D413" d="M233.037 421.082c-3.959-3.745-7.918-7.597-11.877-11.343-.535-.428-1.391-.749-2.14-.856-1.499-.214-2.997-.214-4.495-.214-3.531.107-7.062.214-10.593.214-3.531 0-7.062.214-10.594.428-1.498.107-2.996.321-4.387.535-1.391.214-2.996.535-4.387.749.107.214.214.321.428.321h2.033c.535 0 1.07.107 1.498.107 1.07.214 2.14.428 3.103.963.214.107.535.214.749.428.214.107.428.321.642.428.214.108.428.322.642.429l.107.107.535.535.107.107c.214.214.321.321.428.535l.107.107c.107.214.321.321.428.535 0 .107.107.107.107.214.107.214.214.428.428.642 0 .107.107.107.107.214.107.321.322.535.429.856.107.214.214.321.321.535.107.214.214.321.321.535.856 1.391 1.712 2.675 2.675 3.852 1.819 2.354 3.959 4.387 6.206 6.099 1.177.856 2.354 1.605 3.531 2.354 1.177.749 2.461 1.284 3.745 1.819 1.284.535 2.675.963 4.066 1.391 1.392.428 2.89.642 4.281.857 1.391.214 2.996.321 4.601.428.749 0 1.498 0 2.247.107 1.498 0 2.996 0 4.494-.107 1.498-.107 2.996-.215 4.494-.215 2.247-.107 4.495-.321 6.742-.428.428 0 .856-.321 1.284-.642.107-.107.321-.214.535-.321-.428-.535-.535-.749-.749-.856-4.28-3.852-8.24-7.704-12.199-11.449Zm-16.693-8.775c.642-.107 1.284.643 1.391 1.927-.107.107-.321.642-.642.749-.642.214-1.712-.749-1.819-1.391 0-.856.428-1.178 1.07-1.285Zm-10.486 9.31c0 .107 0 .107 0 0-.321.214-.963-.214-1.177-.642-.107-.428 0-.856.428-.963h.107c.535-.107.749.428.856.749.214.214-.107.642-.214.856Zm28.249 9.844-.107.107c-.428.214-1.605-.535-1.819-1.284-.321-.642.107-1.605.642-1.712h.214c.963-.107 1.284.749 1.605 1.391 0 .321-.321.963-.535 1.498Zm56.713-3.745-.107-.107h-.749c-.321 0-.428 0-.642.107-3.852 3.103-8.132 4.708-12.627 5.243h-1.284c-.428 0-.749.107-1.177.107h-1.926c-.321 0-.642.001-1.07-.107-.214 0-.428 0-.642-.107h-.428c-.642-.107-1.177-.107-1.819-.214h-1.284c-.428.107-.856.214-1.177.321-.535.215-.963.428-1.498.642-3.531 1.285-7.063 1.606-10.594-.213-.107-.107-.321-.108-.428-.108-.107 0-.321-.107-.428-.107-.107.107-.321.215-.428.322a69.76 69.76 0 0 0 1.284 2.782c.214.321.321.535.535.856 1.391 1.819 4.066 3.745 5.672 5.457 3.424 3.852 7.169 6.634 8.453 10.165.749 1.712 1.177 5.672 1.712 10.273.428 1.819.749 3.852.749 6.634.107.535 0 1.177.107 2.033.107-.107.107-.214.214-.428l.321-.642c.321-.642.642-1.284.856-1.819.107-.321.214-.535.321-.856 3.317-9.63 8.347-15.944 13.483-24.718 2.889-4.922 3.959-4.922 6.527-9.844.535-1.071.963-1.927 1.07-2.569v-.535c-.214-.963-1.07-1.498-2.996-2.568Zm-26.751 11.022-.107.107c-.428.214-1.605-.535-1.819-1.284-.321-.642.107-1.605.642-1.712h.214c.963-.107 1.284.749 1.605 1.391 0 .321-.428.963-.535 1.498Zm14.124 9.844c-.214.107-.642-.214-.963-.428-.321-.214-.642-.642-.642-.963 0-.428.214-1.07.535-1.284.428-.321.963-.214 1.284.428.214.321.428.642.642 1.177-.214.428-.428.856-.856 1.07Zm-80.681-154.836c.642.963 1.391 2.033 2.033 2.996l.642.963c.749 1.177 1.605 2.354 2.354 3.638.321.535.749 1.07 1.07 1.605.321.536.642.964.963 1.499 1.177 1.926 2.461 3.852 3.638 5.778a129.64 129.64 0 0 1 5.136 9.309c3.211 6.314 5.993 12.841 8.454 19.475 1.177 3.317 2.354 6.634 3.424 10.059.214.535.321 1.07.535 1.712 1.177 3.852 2.14 7.811 4.173 11.449.214 0 .321 0 .535-.107-.214-4.066-.321-8.132-.535-12.198-.107-1.391-.107-2.676-.214-4.067 0-.428-.107-.856-.214-1.177-.107-.321-.214-.749-.428-1.177-1.284-2.889-2.675-5.885-3.959-8.774-.428-.856-.749-1.712-1.177-2.461-.963-2.033-1.819-4.066-2.782-6.099-2.675-5.886-5.35-11.771-8.133-17.656a45.463 45.463 0 0 0-4.708-7.919c-1.177-1.498-2.461-2.996-3.959-4.28-.749-.642-1.391-1.284-2.247-1.819a38.344 38.344 0 0 1-3.103-2.782l-.963-.963c-2.354-2.247-4.709-4.494-7.063-6.848 0 .321.214.535.321.749 2.14 2.996 4.174 6.099 6.207 9.095Zm31.78 56.927c-.214.214-.321.535-.535.642-.107.107-.428-.107-.535-.214-.214-.107-.428-.321-.321-.535 0-.214.107-.642.321-.749.214-.214.535-.107.749.214 0 .107.107.321.321.642Zm-23.22-50.293c.214.107.428.214.642.428.107.107.214.107.321.214-.214.321-.321.428-.428.535-.214-.214-.535-.428-.642-.642-.107-.107.107-.428.107-.535Zm97.374 22.899c.214-.749.535-1.391.749-2.14-.321-.107-.642-.107-.856-.214h-.107c-1.284-.214-2.461-.856-3.638-1.498-2.033 4.28-3.852 8.561-5.671 13.055-.107.214-.107.428-.214.642-.107.428-.214.856-.214 1.284v.642c-.214 2.996-.321 5.992-.535 9.095-.214 3.104-.321 5.993-.535 9.096-.321 5.671-.856 11.342-1.284 17.121.856-1.713 1.712-3.425 2.033-5.244.642-3.103 1.07-6.313 1.498-9.523.214-1.07.321-2.247.535-3.317 0-.107 0-.214.107-.428 0-.214.107-.428.107-.642.107-.749.321-1.605.428-2.354.107-.321.107-.749.214-1.07l.642-2.89c0-.107 0-.214.107-.321.214-1.07.428-2.033.749-3.103v-.107c.107-.321.214-.749.321-1.07 0-.107.107-.214.107-.321.107-.642.321-1.177.428-1.819.107-.428.214-.749.321-1.177.214-.856.535-1.712.749-2.568.107-.214.107-.428.214-.535v-.107c.321-1.177.749-2.247 1.177-3.424l1.284-3.531 1.284-3.532Zm-7.704 10.701c-.214-.214-.535-.428-.642-.642-.107-.107.107-.321.214-.535.321.214.535.321.963.535-.214.321-.321.535-.535.642Zm-87.102 64.203c-2.14-1.819-4.28-3.317-7.383-3.21-.214 0-.428 0-.642-.107-.214-.107-.428-.107-.642-.107-.749-.107-1.391-.321-2.14-.428-1.391-.321-2.782-.749-4.173-1.177-1.392-.428-2.783-.963-4.067-1.498-2.033-.856-3.959-1.926-5.992-3.104 0 .107.107.214.107.321.107.215.107.321.107.429 0 0 0 .107.107.107.642.963 1.284 1.926 1.926 2.782.321.428.642.749.856 1.177.107.214.321.321.428.535.428.535.856 1.07 1.391 1.605.321.321.642.749.963 1.07.321.321.535.642.856.963l.214.214 2.247 2.247c.536.535 1.178.963 1.713 1.391 1.712 1.177 3.638 1.605 6.099 1.284 3.745-.535 7.597-.428 11.877-.642-.214-.107-.321-.321-.535-.535-.749-.642-1.391-1.284-2.033-1.926-.428-.535-.856-.963-1.284-1.391Zm-7.49-1.391h.107c.535-.107.749.428.856.749.107.214-.107.642-.214.856 0 0 0 .107-.107.107-.214.107-.856-.321-1.07-.749-.107-.428 0-.856.428-.963Zm-9.631-2.889c.214-.214.535-.107.749.214l.321.642c-.214.214-.321.535-.535.642-.107.107-.428-.107-.535-.214-.214-.107-.428-.321-.321-.535 0-.214.107-.642.321-.749Zm127.657-21.294c1.284-4.388 2.568-8.668 3.852-13.055.856-2.782 1.712-5.671 2.568-8.453a323.48 323.48 0 0 0 2.248-7.384c.214-.856.535-1.712.856-2.675-.535.321-1.071.642-1.499 1.07-.535.321-.963.642-1.391.963-.107.107-.214.107-.214.107-.856.535-1.605 1.07-2.461 1.605-.321.214-.535.321-.749.535-.428.428-.749.856-.963 1.392-.107.321-.214.535-.321.856-.856 3.852-1.712 7.811-2.782 11.556-1.177 3.959-2.461 7.918-3.959 11.878-1.391 3.852-2.996 7.704-4.708 11.449-1.712 3.745-3.531 7.49-5.565 11.129-2.033 3.638-4.066 7.169-6.42 10.7-.321.535-.642 1.07-.963 1.712-.642 1.177-1.177 2.354-1.712 3.531-.321.642-.535 1.177-.856 1.712.107.107.321.107.428.214 5.885-6.741 11.343-13.696 16.265-21.187 3.424-5.457 6.527-11.235 8.346-17.655Zm.749-14.125c.321-.107.749.321.856 1.07-.107.107-.214.321-.321.428-.321.107-.963-.428-.963-.749-.107-.428.107-.642.428-.749Zm-9.63 30.282c-.642.214-1.712-.749-1.819-1.391-.107-.749.321-1.07.963-1.284.642-.107 1.284.642 1.391 1.926 0 .107-.214.642-.535.749Zm-54.68-66.45c3.21 4.067 6.421 8.133 9.417 12.306 1.07 1.391 2.033 2.782 3.103 4.173 3.21 4.494 6.313 9.096 7.918 14.553 2.675 9.095 3.852 18.405 4.708 27.821.107 1.391.214 2.675.321 4.066.107 1.819.321 3.638.535 5.458.107.963.214 1.819.214 2.782l.321 2.889c.214-.214.428-.321.535-.428.321-.321.535-.535.856-.749l.322-.321c.321-.214.642-.535.856-.749.321-.428.642-.856.749-1.391.107-.321.107-.749.107-1.07 0-.214 0-.428-.107-.642-.107-.964-.214-1.927-.214-2.89 0-.963 0-1.926-.107-2.996-.107-1.605-.107-3.21-.214-4.815v-1.391c0-.749 0-1.391-.107-2.14v-8.239c0-1.499.107-2.997.107-4.495.107-4.066.428-8.025.749-12.091.642-7.384.749-14.66.428-22.043-.535-11.664-3.104-22.899-6.207-34.028-.535-2.033-1.177-4.066-1.712-6.099-.428-1.712-.963-3.317-1.391-5.029-.749-2.675-1.498-5.458-2.354-8.133-1.819-6.42-3.638-12.84-5.564-19.261-.749-2.675-1.391-5.35-2.14-8.346 0 .107-.107.214-.107.321 0 .107 0 .107-.107.214 0 .107-.107.214-.107.321v.107c0 .107 0 .107-.107.214-1.712 7.49-3.531 14.874-5.244 22.364-.535 2.461-1.177 4.922-1.712 7.49-.535 2.355-.963 4.602-1.391 6.956-.107.642-.214 1.284-.428 1.926l-.642 3.531c-.321 1.819-.642 3.638-.856 5.457-.642 4.494-1.284 8.989-1.712 13.59-.214 1.498-.321 2.996-.428 4.494 0 .321 0 .535-.107.856 0 1.391.214 2.568.856 3.852.214.642.535 1.07.963 1.605Zm26.216 43.444c-.428-.321-.749-.749-1.284-1.177.428-.428.642-.963.963-.963.749-.107.963.642.963 1.177 0 .214-.428.642-.642.963Zm1.177 21.08c-.214-.214-.428-.428-.749-.642.214-.214.428-.535.535-.535.428-.107.535.321.535.642.107.214-.214.428-.321.535Zm-.856-76.401c.856-.107.963.642.963 1.177 0 .321-.428.642-.642 1.07-.428-.321-.749-.749-1.284-1.177.428-.535.642-1.07.963-1.07Zm-15.622 13.268c-.428.535-.642.749-.856.964-.428-.322-.856-.643-1.177-1.071-.107-.107.214-.642.321-.856.535.214 1.07.535 1.712.963Zm-2.14-36.381c.535.321.963.642 1.712.963-.428.535-.642.749-.856.963-.428-.321-.856-.642-1.177-1.07-.214-.107.107-.535.321-.856Zm66.343 97.481c-4.816 5.243-9.738 10.273-14.66 15.302-2.782 2.782-5.564 5.564-8.346 8.453 1.712-.963 3.424-1.926 5.029-2.996l4.815-3.21c.963-.642 2.033-1.391 2.996-2.033.107-.107.214-.107.321-.214 3.21-2.14 6.313-4.28 9.631-6.099.107-.107.214-.107.321-.214v-.428c0-2.889 0-5.672-.107-8.561Zm-46.762 16.051-.321.321c-.749.749-1.07 1.498-.428 2.461 1.605 2.354 3.425 4.708 5.03 6.848a231.66 231.66 0 0 1 2.247-5.029c.749-1.605 1.498-3.317 2.354-4.922.535-1.177 1.177-2.247 1.712-3.317 1.712-3.317 3.531-6.634 5.136-10.059 2.996-6.313 5.778-12.626 8.24-19.153.749-1.927 1.391-3.96 2.033-5.886.642-2.033 1.284-3.959 1.819-5.992.535-2.033 1.07-3.959 1.605-5.992 1.07-3.959 2.14-8.026 3.317-11.985.642-2.033 1.177-3.959 1.819-5.885.321-.856.535-1.712.856-2.568.107-.321.214-.535.321-.856 0-.107 0-.107.107-.214.428-1.284.963-2.675 1.391-3.959.107-.321.214-.535.321-.856-.749 0-1.498-.107-2.14-.215-1.07-.107-2.247-.321-3.317-.428-2.14 5.137-3.852 10.38-4.815 15.944a693.165 693.165 0 0 1-3.531 20.652c-.214 1.177-.429 2.354-.75 3.531-.214 1.07-.535 2.033-.749 2.996-1.926 7.063-4.601 13.804-8.667 20.01-.428.749-.963 1.391-1.391 2.14-.963 1.392-2.033 2.676-3.103 3.96-1.07 1.284-2.247 2.461-3.424 3.638-1.819 1.605-3.745 3.21-5.672 4.815Zm4.495 4.494c0 .107-.107.107-.107.107-.428.214-1.605-.535-1.819-1.284-.321-.642.107-1.605.642-1.712h.214c.963-.107 1.284.749 1.605 1.391.107.321-.321.963-.535 1.498Zm-93.094 20.866c-.107-.107-.214-.107-.321-.214-.214-.107-.428-.214-.749-.214h-.322c-.749 0-1.391.107-2.14.214-2.996.321-5.885.749-8.667 1.498-1.712.428-3.531.963-5.136 1.605a35.393 35.393 0 0 0-5.029 2.354c-1.82 1.07-3.532 2.141-5.03 3.425-2.568 2.14-4.601 4.815-5.992 8.132-.428 1.07-1.07 2.033-1.712 2.996-.642.963-1.284 1.926-2.033 2.889-.214.321-.428.535-.642.856-.428.535-.963 1.177-1.391 1.712-.214.321-.428.535-.642.856l-.107.107c1.819-1.07 3.638-2.033 5.35-3.103 3.531-2.033 7.062-4.066 10.593-5.992 1.713-.963 3.532-1.926 5.351-2.889 2.247-1.284 4.601-2.461 6.955-3.638 1.819-.963 3.745-1.819 5.671-2.675 3.317-1.392 6.849-2.569 10.487-3.104-.749-.856-1.498-1.605-2.247-2.461-.749-.856-1.498-1.605-2.247-2.354Zm-26.966 11.557c.428-.214 1.177.642 1.284 1.498l-.535.535c-.428-.321-.963-.642-1.177-1.07-.107-.214.214-.856.428-.963Zm16.586-5.565c-.214-.214-.535-.428-.642-.642-.107-.107.107-.321.214-.535.321.214.535.321.963.535-.321.321-.428.428-.535.642Zm8.346-1.284c-.642.214-1.712-.749-1.819-1.391-.107-.749.321-1.07.963-1.284.642-.107 1.284.642 1.391 1.926 0 .214-.214.642-.535.749Zm62.384-2.14c1.391.749 2.996 1.07 4.816.642-.963-.749-1.82-1.498-2.569-2.354-.321-.321-.535-.642-.749-.963-.535-.642-.963-1.391-1.284-2.033a4.998 4.998 0 0 1-.535-1.07c-.749-1.498-1.284-2.996-1.712-4.708-.214-.749-.428-1.391-.642-2.14 0-.107-.107-.321-.107-.428l-.321-.963c-.107-.214-.214-.535-.214-.749-.214-.535-.321-1.071-.535-1.606-.107-.214-.107-.321-.214-.535 0-.107 0-.107-.107-.214-.214-.535-.321-.963-.535-1.498 0-.107 0-.107-.107-.214-.214-.642-.535-1.177-.749-1.819l-3.21-6.42c-2.14-4.28-4.28-8.453-6.527-12.734-1.07-2.14-2.247-4.173-3.318-6.313a24.496 24.496 0 0 0-.963-1.712 83.02 83.02 0 0 0-3.424-5.029 104.198 104.198 0 0 1-3.959-5.564c-1.284-1.927-2.461-3.746-3.531-5.779a107.493 107.493 0 0 1-2.996-6.099c-.963-2.14-1.605-4.28-2.247-6.42a89.196 89.196 0 0 0-3.852-11.022c-.964-2.354-2.141-4.601-3.318-6.848a63.69 63.69 0 0 0-3.852-6.42c-.642-1.07-1.391-2.033-2.14-3.104-2.247-2.996-4.601-5.885-7.169-8.56-1.712-1.819-3.531-3.531-5.457-5.243a99.398 99.398 0 0 0-9.096-7.169c-.214-.215-.535-.322-.749-.536-2.247-1.605-4.601-3.103-6.848-4.601-2.247-1.498-4.494-2.996-6.635-4.494-.428-.321-.963-.749-1.391-1.07-.535-.428-.963-.749-1.498-1.177-.214-.214-.428-.321-.642-.535-.642-.535-1.391-1.177-2.033-1.712.963 1.605 1.926 3.21 2.889 4.708.749 1.177 1.605 2.461 2.354 3.638.214.428.535.749.75 1.177.535.856 1.07 1.605 1.712 2.461l1.926 2.569c.214.321.428.535.749.856.963 1.07 2.033 2.14 3.103 2.996a52.725 52.725 0 0 1 3.531 3.21 66.234 66.234 0 0 1 8.667 11.128c.535.856 1.07 1.819 1.605 2.675a23.08 23.08 0 0 1 1.499 2.783c.642 1.284 1.284 2.675 1.926 3.959 1.926 3.959 3.531 8.132 5.136 12.198 1.177 3.103 2.568 5.993 4.066 8.882 1.498 2.889 3.103 5.671 4.815 8.56 1.07 1.819 2.247 3.745 3.317 5.564 3.211 5.351 6.528 10.808 9.738 16.158 3.21 5.35 6.527 10.808 9.844 16.158a299.148 299.148 0 0 0 6.207 9.737c2.14 3.21 4.28 6.421 6.527 9.524.321.428.642.856.963 1.177 2.247 2.782 5.136 5.136 7.811 7.597.428.856.856 1.177 1.284 1.498Zm-17.013-35.204c.428-.321.963-.214 1.284.428.214.321.428.642.642 1.177-.321.428-.535.856-.856 1.07-.214.107-.642-.214-.963-.428-.321-.214-.642-.642-.642-.963 0-.428.214-1.07.535-1.284Zm-26.538-55.964c.214-.107.642.428.749.856l-.321.321c-.214-.214-.535-.321-.642-.642-.107-.107.107-.535.214-.535Zm-33.813-32.957c-.321.107-.749-.214-.856-.535 0-.107-.107-.214-.107-.214-.107-.428.214-.643.535-.75.321-.107.642.215.749.857v.214c-.107.107-.214.428-.321.428Zm23.648 34.99c-.428-.321-.856-.642-1.177-1.07-.107-.107.214-.642.321-.856.535.321.963.642 1.712.963-.428.428-.642.749-.856.963Zm122.734 64.203c-7.597 4.601-15.194 9.203-21.401 12.948.535-.107 1.177-.321 1.712-.535 1.82-.535 3.853-1.177 5.993-1.712a54.06 54.06 0 0 0 2.14-.642c2.247-.642 4.601-1.178 6.848-1.713.642-.107 1.177-.214 1.712-.428.214-.107.428-.107.642-.214.107 0 .214 0 .214-.107.107 0 .214-.107.321-.107.749-.214 1.498-.428 2.247-.749.535-.214.963-.428 1.498-.535.214-.107.535-.214.749-.321.107-.107.214-.107.428-.214.75-.321 1.392-.642 2.141-.963.214-.107.321-.214.535-.214v-.107c0-2.675.107-5.35.107-8.025-1.177.642-2.354 1.284-3.532 2.033-.535.535-1.498 1.07-2.354 1.605Zm.107 2.889c-.107-.428 0-.856.428-.963h.107c.535-.107.749.428.856.749.107.214-.107.642-.214.856 0 0 0 .107-.107.107-.321.107-.963-.321-1.07-.749Zm-149.592-44.942c4.173 3.103 8.346 6.313 12.412 9.631 1.391 1.07 2.675 2.247 4.066 3.317 2.782 2.354 5.458 4.601 8.24 6.955 5.457 4.708 10.807 9.417 16.264 14.125 2.676 2.354 5.458 4.708 8.133 7.062 1.391 1.177 2.782 2.461 4.28 3.638.963.749 1.819 1.498 2.782 2.247-1.819-2.889-3.531-5.778-5.35-8.56-.749-1.177-1.391-2.247-2.14-3.424-.963-1.498-1.819-2.996-2.782-4.494-.107-.107-.107-.214-.214-.321l-.321-.321c-.214-.214-.428-.321-.642-.535-2.889-2.462-5.886-4.816-8.882-7.17a143.284 143.284 0 0 1-8.667-7.383c-5.778-5.243-11.664-10.166-17.977-14.66-3.745-2.675-7.704-5.136-11.771-7.49-2.889-1.605-5.778-3.21-8.774-4.494-2.996-1.284-6.099-2.568-9.202-3.425-.321-.107-.535-.107-.856-.214-1.07-.214-2.247-.107-3.318.107-.321.107-.642.214-1.07.321-.107 0-.107.001-.214.108a7.377 7.377 0 0 0-1.07.428c.214.107.321.214.428.321 7.705 1.819 14.66 5.35 21.08 9.951 1.819 1.498 3.746 2.889 5.565 4.28Zm37.13 26.858c.107.107.107.321.107.428 0 .214-.214.428-.321.642-.214-.214-.428-.428-.749-.642.214-.214.428-.535.535-.535h.214c.107-.107.214 0 .214.107Zm-31.138-27.821c.428-.107.535.321.535.642 0 .214-.214.428-.321.642a4.654 4.654 0 0 0-.749-.642c.214-.321.428-.535.535-.642Zm61.635-66.771c.107.321.107.535.214.856.214 1.177.535 2.247.856 3.424 1.07 4.28 2.354 8.454 3.531 12.627 0 .107.107.321.214.428.107.107.107.321.214.428.214.321.321.642.535 1.07.107-.107.107-.214.214-.214.107-.107.107-.214.214-.214v-.107c.856-4.922 1.712-9.952 2.568-14.874.214-1.391.428-2.782.749-4.066.321-1.819.642-3.638.963-5.564.107-.321.107-.642.214-.963.214-1.07.428-2.354.107-3.317-.535-2.033-1.07-3.96-1.712-5.993-.214-.856-.535-1.819-.749-2.675a135.79 135.79 0 0 1-1.819-6.206c-.214-.856-.535-1.605-.749-2.461-.428-1.391-.963-2.675-1.498-4.066s-1.177-2.675-1.712-3.96c-.214.535-.214.964-.214 1.392-.642 9.095-1.391 18.19-2.033 27.179-.107.963-.107 1.926-.214 2.889v2.675c0 .535 0 1.177.107 1.712Zm3.959 2.461c-.428-.321-.963-.642-1.177-1.07-.107-.214.214-.856.535-.963.428-.214 1.177.642 1.284 1.498-.107.107-.535.535-.642.535Zm83.357 119.418c-8.454 1.926-17.014 3.745-25.468 5.671a49.167 49.167 0 0 0-3.745 1.07c-1.284.428-2.568.749-3.852 1.177 4.066 3.959 4.066 3.959 2.782 11.022.428.107.963.321 1.391.428 3.638.856 6.956 0 10.059-1.713.428-.214.856-.535 1.284-.749 2.782-1.712 5.457-3.531 8.239-5.35a350.136 350.136 0 0 1 8.24-5.243c.428-.321.963-.535 1.391-.749v-5.671s-.107 0-.321.107c.107 0 .107 0 0 0Zm-23.649 15.729c-.642.214-1.712-.749-1.819-1.391-.107-.749.321-1.07.963-1.284.642-.107 1.284.642 1.391 1.926-.107.214-.214.642-.535.749Zm2.141-6.848c-.428-.321-.963-.642-1.177-1.07-.107-.214.214-.856.535-.963.428-.214 1.177.642 1.284 1.498-.214.107-.642.535-.642.535Zm7.383-3.745h.214c.963-.107 1.284.749 1.605 1.391.214.428-.214 1.07-.428 1.605l-.107.107c-.428.214-1.605-.535-1.819-1.284-.428-.749-.107-1.605.535-1.819Z"></path>
  <path fill="#C7D413" d="M234.428 306.801v3.103c0 8.453-.214 17.014 0 25.467.107 2.247.107 4.601.214 6.848.321 6.849.749 13.697 1.177 20.652 0 .428.107.856.107 1.284 0 .428.107.856.214 1.284.107.856.321 1.712.535 2.568l.321 1.285c.321.856.535 1.712.963 2.461.214.428.428.856.642 1.177a458.026 458.026 0 0 1 5.351 10.058 460.318 460.318 0 0 0 5.35 10.059c3.103 5.992 5.992 12.091 7.918 18.511a64.66 64.66 0 0 1 1.605 6.528c.107.856.428 1.605.642 2.354.107.321.321.749.535 1.07a6.072 6.072 0 0 0 1.284 1.926c.749.963 1.605 1.712 2.676 2.461.321.214.749.428 1.07.642.107.107.321.107.428.214.214.107.535.214.749.321.214.107.428.107.642.214.214.107.428.107.642.214.214.107.535.107.749.214.214 0 .321.107.535.107.321.107.642.107.856.107.107 0 .321 0 .428.107.321 0 .749.107 1.07.107h1.926c.428 0 .856 0 1.284-.107h.107c.535 0 .963-.107 1.498-.107h.107c.107 0 .321-.107.428-.107.428-.107.856-.214 1.391-.214.214-.107.428-.107.749-.214.535-.107 1.07-.321 1.605-.535h.214a17.408 17.408 0 0 0 2.461-1.177 15.29 15.29 0 0 0 2.14-1.498c.429-.321.643-.749.964-1.07.321-.321.428-.749.535-1.177.107-.428.107-.856.107-1.284 0-.428-.107-.856-.321-1.391-.535-1.391-1.177-2.889-2.141-4.173-.321-.428-.642-.963-1.07-1.391-.749-.963-1.498-1.82-2.247-2.676-.428-.428-.749-.856-1.177-1.284a11.79 11.79 0 0 1-2.14-2.996c-.214-.535-.535-1.07-.642-1.605-.107-.535-.321-1.177-.428-1.819-.642-4.601-1.177-9.095-1.819-13.697-.963-7.276-1.926-14.445-2.996-21.722-.321-2.354-.749-4.815-1.07-7.169-.107-.963-.321-2.033-.535-2.996a26.19 26.19 0 0 0-1.926-5.778c-.428-.963-.856-1.819-1.498-2.675-1.177-1.926-2.461-3.746-3.639-5.672-2.461-3.745-4.815-7.49-7.383-11.235-1.284-1.819-2.461-3.745-3.745-5.564-4.173-5.993-8.56-11.771-12.948-17.656-1.498-1.926-2.889-3.852-4.387-5.885-.107 0-.107.107-.214.107s-.107.107-.214.107c.214 1.177.321 2.14.321 3.317Zm5.136 62.384c-.428-.321-.749-.749-1.284-1.178.428-.428.642-.963.963-.963.749-.107.963.642.963 1.178 0 .321-.428.642-.642.963Zm.535-23.007c-.214-.214-.535-.321-.642-.642-.107-.107.107-.428.321-.535.214-.107.642.428.749.856-.107.107-.321.321-.428.321Zm17.228 52.861c-.107.107-.428-.107-.535-.214-.214-.107-.428-.321-.428-.535 0-.214.107-.642.321-.749.214-.214.535-.107.749.214l.321.642c-.107.214-.214.535-.428.642Zm9.952 25.36c-.214.107-.642-.214-.963-.428-.321-.214-.642-.642-.642-.963 0-.428.214-1.07.535-1.284.428-.321.963-.214 1.284.428.214.321.428.642.642 1.177-.321.321-.535.856-.856 1.07Zm8.56-13.59h.214c.963-.107 1.284.749 1.605 1.391.107.429-.214 1.071-.428 1.606 0 .107-.107.107-.107.107-.428.214-1.605-.535-1.819-1.284-.428-.857-.107-1.713.535-1.82Zm-7.704-32.101c.214-.107.642.428.749.856l-.321.321c-.214-.214-.535-.321-.642-.642-.107-.107 0-.428.214-.535ZM247.59 327.56c.428-.214 1.177.642 1.284 1.498l-.535.535c-.428-.321-.963-.642-1.177-1.07-.107-.107.214-.749.428-.963Zm-30.176 111.927c-.107.107-.321.107-.428.214a8.16 8.16 0 0 0-1.819 1.391c-.749.749-1.391 1.712-2.033 2.675-.321.428-.535.963-.749 1.498a9.783 9.783 0 0 1-.749 1.498c1.07-.535 2.033-1.177 3.103-1.712 3.104-1.712 6.207-3.531 9.203-5.243-1.498-.214-3.317-.535-5.136-.642-.428-.107-.963.107-1.392.321Zm83.785-75.974c-3.852 5.672-5.029 12.306-6.955 18.726 3.638-5.778 5.671-12.091 6.955-18.726Zm-20.973-158.688c.321 5.778 1.178 11.557 1.606 17.335.642 9.523 1.07 19.047 1.605 28.57h-.107c.214 7.384.428 14.767.749 22.043.214 3.745.749 7.491.963 11.236 0 .535.107 1.07.107 1.712 0 1.177.107 2.247.321 3.424.642 4.173 2.033 8.025 3.852 11.77.107.321.321.536.428.857 1.07 1.819 2.461 3.531 3.745 5.243.214.321 1.498.535 1.712.214 2.247-2.568 4.28-5.35 6.527-7.919.535-.535 1.606-1.177 2.141-.963.428.214.856.428 1.07.749.856.963.856 2.355.107 3.639-1.07 1.605-2.247 3.103-3.211 4.708-2.461 4.173-2.675 4.708.749 6.313.428.214.964.428 1.606.749.214.107.428.214.749.214.321.107.642.107.963.214.214 0 .321.107.535.107 1.498.321 2.996.535 4.494.749.642.107 1.284.214 2.033.321 2.033.214 4.173.428 6.206.535 1.391 0 2.782.107 4.28 0h1.07c.857 0 1.82-.107 2.676-.214 1.498-.107 2.14-.749 2.14-2.354v-31.352c-.107-2.675-.535-2.675-4.066-2.354-3.318.214-6.421-.642-8.882-2.783-4.815-4.066-7.383-9.63-7.918-15.836-.428-4.387.107-8.882.428-13.376.535-6.741 1.177-13.376 1.819-20.01.535-6.313 1.391-12.733 1.498-19.047.107-9.202-.642-18.405-.749-27.607-.214-9.951-.214-19.903-2.14-29.747-.535-2.461-1.284-4.923-2.033-7.384-.214-.535-.749-.856-1.177-1.391-.428.428-1.07.856-1.391 1.391-.963 1.605-1.82 3.211-2.676 4.816-.642 1.177-1.498 1.926-2.889 1.284-.428-.214-.749-.749-1.07-1.391-.428-.856-.535-2.034-.321-2.676 1.177-2.568 2.247-5.243 3.745-7.704.749-1.391.428-2.033-.428-2.889-3.21-3.317-6.848-4.815-11.021-4.922-1.391 0-2.782.107-4.28.428-2.354.535-4.923 1.391-5.03 4.601 0 .321-.214.642-.321.963-1.284 3.852-2.461 7.811-2.354 11.985.107 4.173.107 8.346.321 12.626.428 14.232 1.07 28.677 1.819 43.123Zm10.059 75.974c-.214-.321.535-1.177.749-1.713l3.21 2.141c-.856.963-1.284 1.391-1.712 1.926-.749-.856-1.605-1.498-2.247-2.354Zm4.28 16.264c-.856-.642-1.712-1.284-2.247-2.247-.214-.321.535-1.605 1.07-1.819.749-.428 2.247 1.391 2.247 3.103-.214.214-.963 1.07-1.07.963Zm29.533 15.944c-.214.107-.535 0-.856-.107a4.488 4.488 0 0 1-1.498-.963c-.535-.535-.963-1.177-.963-1.712-.107-1.498.642-2.14 1.926-2.354.428-.107.856.107 1.284.428.749.642 1.285 1.819 1.285 3.424-.214.214-.643 1.177-1.178 1.284Zm-20.544-145.634c.535.321 1.391.642 1.498 1.07.107.642-.321 1.285-.535 2.034-.321 0-.535-.107-.856-.107-.214-.856-.321-1.606-.536-2.462.108-.321.215-.428.429-.535Zm-2.569 63.775c1.498.963 2.89 2.14 4.388 2.996 1.712.963 2.461 2.462 2.782 4.174.214.749-.428 2.247-1.07 2.568-.856.428-2.354.428-3.21-.107-2.248-1.391-4.388-2.996-6.528-4.494-.963-.749-1.926-1.392-2.996-2.141-1.391-.963-1.498-2.568-.856-3.745.428-.856 1.712-1.177 2.782-1.926.321.214.535.321.856.428l3.852 2.247ZM286.54 180c.428-.749 1.07-1.284 1.926-2.14 1.605.856 2.889 1.391 3.959 2.247 2.033 1.712 4.28 3.531 5.457 5.885.214.428.428.963.642 1.391.321.856-.321 2.033-.642 3.103 0 .107-.107.214-.107.321-.963-.321-2.14-.321-2.782-.856-2.461-2.033-4.815-4.066-7.169-6.313-.963-.963-2.247-2.033-1.284-3.638Zm97.267 93.843c-.428-15.087-1.284-30.175-.535-45.263.428-7.49-.321-14.981-.321-22.471-.107-15.944-.107-31.994-.214-47.938 0-4.494-.535-9.095-.963-13.59-1.177-11.021-.642-22.257-2.889-33.278-.642-3.21-1.177-6.421-1.819-10.059a260.352 260.352 0 0 0-3.317 1.819c-1.605.963-2.889.428-3.96-.749-.963-1.07-.856-2.247.214-3.21.963-.963 1.927-1.926 2.997-2.675 1.391-.963 1.926-2.247.749-3.531-2.247-2.568-4.602-5.136-7.277-7.17-1.926-1.39-4.387-2.246-6.741-2.674-1.926-.428-4.066 0-6.099.32-2.675.428-5.351.964-6.635 3.746l-2.247 5.136c-1.605 3.638-3.21 7.276-4.708 10.914-.963 2.462-1.391 5.137-1.926 7.812-1.07 5.457-2.354 10.807-2.996 16.372-.535 3.852-.321 7.811-.321 11.663l.642 44.621c0 2.247.642 4.387.749 6.634.535 12.627 1.07 25.361 1.498 37.987.107 3.959-.214 8.025-.428 12.092-.107 1.391.428 2.247 2.033 1.926 1.498-.321 2.782.107 3.852 1.177.642.642 1.498 1.712 1.284 2.247-.214.856-1.177 1.712-2.033 2.247-1.284.749-2.782.963-4.066 1.605-.535.321-1.07 1.177-1.07 1.712-.214 5.564-.535 11.129-.535 16.693-.107 5.029-.107 10.058-.107 15.088v23.969c0 4.066 0 8.239.107 12.305.428 15.944.963 31.781 1.498 47.724v1.391c0 .535.214 1.178.321 1.82 1.498-.535 2.889-.856 3.959-1.606 1.284-.963 2.14-2.354 3.317-3.424 2.14-2.033 4.388-4.066 6.528-5.992.963-.856 1.712-.642 2.354-.214.321.214.642.535.856.856.214.214.428.535.535.749.321.749.107 1.605-.642 2.354-1.177 1.284-2.461 2.568-3.638 3.852-2.568 2.89-5.244 5.779-7.812 8.668-1.391 1.605-2.889 3.21-4.28 4.815-.642.642-1.07 1.712-1.07 2.675v21.722c0 3.745 0 7.49.107 11.236v8.346c0 5.778.214 11.557.428 17.335 0 .963 0 2.14 1.391 2.033 1.391-.214 2.889-.321 4.066-1.07 3.21-2.033 5.244-.107 7.063 2.247.963 1.284-.107 3.745-1.605 4.173-2.034.642-3.96 1.284-5.886 2.033-2.996 1.07-5.35 2.247-5.029 6.421.321 4.601-.321 9.309-.428 14.017 0 2.461.214 5.029.428 7.491.321 3.531.856 6.955 1.177 10.379.107 1.177.428 1.712 1.605 1.391 1.284-.321 2.568-.856 3.852-1.177 6.421-1.284 12.734-2.568 19.154-3.745 1.605-.321 3.21-.535 4.922-.856 3.318-.535 6.742-1.07 10.059-1.605.642-.107 1.498-.963 1.498-1.498.428-4.281.642-8.668.856-12.948.321-7.918.642-15.837.856-23.755 0-.214 0-.535.107-.749.321-5.778.642-11.557.963-17.442.107-2.461.214-5.029.214-7.49 0-3.103-.214-6.206-.321-9.524-1.712 2.783-2.461 2.889-4.815 1.177-1.391-.963-2.568-2.033-3.959-2.996-2.033-1.498-4.066-2.782-5.993-4.28-.535-.428-.856-1.07-.963-1.926a4.053 4.053 0 0 1 0-1.605c.107-.428.214-.856.428-1.07 1.177-1.498 2.355-1.819 4.174-.749 4.066 2.461 8.239 4.815 11.021 9.095.107-.428.214-.749.214-1.07l.321-16.051c0-1.605 0-3.21.107-4.815v-2.14c.107-10.807 0-21.615.107-32.422 0-1.498 0-2.996.107-4.494.107-4.067.214-8.133.321-12.306.107-3.21.214-6.527.214-9.738.107-6.634.321-13.161.214-19.795-.856-10.166-1.498-20.545-1.819-30.925Zm-31.138 146.49c0 .107-.214.214-.321.214-.535.214-1.712-.428-2.461-1.284-.428-.428-.856-.963-.963-1.498-.429-1.07.107-2.461.963-3.103.214-.107.321-.214.535-.214h.428c2.033-.107 2.568 1.605 2.889 2.782.214.856-.642 2.033-1.07 3.103Zm18.94-221.714c.856-.963 1.284-2.675 2.996-2.14 1.819.535 2.568 2.033 2.675 4.066-.428.856-.642 1.926-1.284 2.675-2.461 2.996-5.03 5.885-7.598 8.774-.214.214-.428.428-.642.749-1.712 1.926-3.103 2.033-4.708.535-.856-.856-1.07-1.712-.428-2.675 1.819-2.675 3.638-5.35 5.564-7.918.107-.107.214-.214.321-.428.963-1.284 2.033-2.354 3.104-3.638Zm-18.191-99.943c0 .107-.428.214-.856.535-.214-.642-.535-.963-.535-1.39 0-.75.214-1.606.321-2.355.428.107 1.07.321 1.07.535.107.856 0 1.82 0 2.675Zm-6.528 8.775c-.535-.642-1.07-1.177-1.712-2.033.535-.536.856-.857 1.177-1.071.535.535 1.177 1.071 1.498 1.713 0 .214-.642.856-.963 1.391Zm.963 176.13c-.214.321-.535.642-.749.963l-1.07-1.07-1.391-1.391c.856-.856 1.391-1.82 2.033-1.82 1.605-.214 1.819 1.285 1.712 2.355 0 .214-.214.535-.535.963Zm10.915-135.041c-.321.321-1.391.536-1.712.321-1.177-.856-2.568-1.819-3.21-3.103-1.926-3.424-3.531-7.062-5.351-10.486-.642-1.284-1.391-2.461-2.247-3.959.642-.749.963-1.391 1.498-1.712.856-.428 1.606-.642 2.569.321 3.852 4.173 6.099 9.416 8.132 14.552.321.749.642 1.498.749 2.354 0 .535-.107 1.391-.428 1.712Zm15.088 224.497c-.321.321-.535.642-.856.856-.321.214-1.284-.428-1.819-.856a4.03 4.03 0 0 1-1.071-1.284c-.107-.214-.107-.428-.107-.535.107-.856.535-2.033 1.178-2.569.856-.642 1.926-.214 2.461.964.321.642.642 1.391 1.177 2.247a3.345 3.345 0 0 0-.963 1.177Zm3.852-50.935c-.428 1.605-1.498 1.926-2.889.963-1.926-1.391-3.853-2.889-5.886-4.173-.321-.214-.535-.321-.856-.535-1.07-.642-2.247-1.07-3.317-1.819-1.177-.749-2.033-1.819-3.103-2.675-.963-.963-.856-1.819-.107-2.889.856-1.07 1.819-2.033 3.424-1.605 1.07.321 2.14.749 3.21 1.177 3.211 1.498 6.1 3.745 8.668 6.206.749.749.963 2.14 1.284 2.996-.214.963-.214 1.605-.428 2.354Zm61.1-3.103c0-1.605-.642-2.782-2.141-3.531-1.07-.642-2.033-1.498-2.996-2.354-1.391-1.177-1.391-2.675-.749-4.173.642-1.498 2.14-1.07 3.424-.963 2.355.214 2.462.214 2.355-2.033a1083.26 1083.26 0 0 0-1.284-26.324c0-.856-1.071-1.712-1.82-2.354-1.605-1.284-3.531-2.14-4.922-3.531-.107-.107-.321-.321-.428-.535-.749-.963-1.284-2.247-1.177-3.317.107-.963.535-1.605 1.177-1.926 1.07-.642 2.568-.535 4.066.428.642.428 1.498.535 2.14.856.107-.749.428-1.605.428-2.354-.107-6.955-.321-13.911-.535-20.973-.321-10.38-.642-20.866-.963-31.245h.535c-.321-8.561-.535-17.014-.856-25.575-.321-9.844-.856-19.689-1.177-29.533-.107-1.926-.963-2.461-2.675-2.247-1.498.214-3.103.428-4.601.321-1.926 0-3.317-1.498-3.424-3.21-.107-1.712 1.177-2.889 3.103-3.21 1.605-.321 3.21-.642 4.815-1.177.535-.214 1.177-1.284 1.07-1.82-.642-3.959-1.177-7.918-2.354-11.877-.856-2.889-2.14-5.671-3.531-8.346-.428-.856-1.712-1.284-2.782-1.606-.963-.321-2.033 0-2.996-.214-3.21-.642-3.745-.642-5.35 1.713-.107.107-.108.214-.215.321-.642.963-1.284 2.033-1.391 3.103-.107.963.214 2.14.642 3.103.321.749 1.285 1.284 1.713 2.033.963 1.391 2.033 2.782 2.675 4.28.321.749-.107 2.14-.749 2.675-.535.428-1.819.214-2.568 0-.643-.214-1.285-.749-1.82-1.391-1.177-1.391-1.819-.856-2.247.535-.214.642-.428 1.391-.428 2.033 0 3.959 0 7.919.107 11.878.428 10.486.856 20.866 1.391 31.352.214 3.21.749 6.421.856 9.738.428 8.667.856 17.228 1.177 25.895.107 1.819.75 2.782 2.462 3.638 1.07.535 1.712 2.247 1.926 3.531.107.642-1.07 2.033-1.819 2.247-1.819.428-1.712 1.391-1.391 2.675.107.535.321.964.321 1.499.856 7.704 1.712 15.408 2.354 23.113.963 11.342 1.819 22.685 2.675 34.027.428 5.243.535 10.594.856 15.944.107.963.642 2.033 1.391 2.675 2.14 2.033 4.922 3.424 6.206 6.313.535 1.177.321 3.317-.642 4.066-1.284.963-2.354.321-3.317-.642a17.462 17.462 0 0 0-2.14-1.819c-1.177-.856-1.926-.535-2.033.963-.535 6.314-.963 12.734-1.391 19.154-.214 3.21-.321 6.528-2.247 9.417-.321.428-.107 1.391.107 1.926.749 1.498 1.926 2.889 2.675 4.387.642 1.391 1.391 2.996 1.391 4.601s-1.819 2.568-2.782 1.605c-1.712-1.605-3.424-3.317-4.923-5.243-1.284-1.605-1.819-1.926-3.638-.856-5.243 3.103-10.593 5.885-16.799 6.527-1.499.107-2.248.963-2.141 2.568.107 2.461.321 4.816.214 7.277l-.321 14.98c0 1.498-.107 2.89-.107 4.388 0 1.284.214 1.926 1.819 1.605 1.392-.321 2.89-.107 4.388-.214 3.638-.321 7.276-.428 10.807-1.07 5.778-1.07 10.915-3.853 16.158-6.314.963-.428 1.391-.963.535-1.819l-1.07-1.07c-1.712-1.712-3.424-3.424-4.922-5.243-.214-.321-.428-.535-.428-.856-.321-1.07.321-2.14 1.177-2.889.749-.642 1.712-1.605 2.889-.642.214.107.321.321.535.428 2.461 2.247 5.029 4.387 7.383 6.741 1.605 1.498 3.317 1.712 4.387-.214 1.177-2.247 2.569-4.708 2.89-7.169.749-5.458 1.07-11.022 1.177-16.586.107-7.062-.214-14.125-.214-21.08-.321-5.778-.107-11.449.107-17.014Zm-25.147-158.688c-.749-.107-1.284-1.391-2.247-2.675.963-.642 1.605-1.391 2.354-1.605 1.499-.321 1.499 1.07 1.606 2.033.214 1.391-.642 2.354-1.713 2.247Zm15.73 15.623c.642.749 1.498 1.391 1.926 2.354.107.321-.963 1.07-1.391 1.712-.535-.749-1.177-1.391-1.819-2.247.428-.856.856-1.391 1.284-1.819Zm-6.206 80.788c-.642-.856-1.712-1.605-1.712-2.461 0-.749 1.177-1.498 1.819-2.354.642.856 1.284 1.605 2.14 2.782a29.516 29.516 0 0 1-2.247 2.033Z"></path>
  <path fill="#89AF27" d="M319.176 372.609c1.284-4.388 2.568-8.668 3.852-13.055.428-2.247.856-4.494.963-6.741.214-3.959 0-6.956 1.392-9.631-.857.535-1.606 1.07-2.462 1.605-.321.214-.535.321-.749.535-.428.428-.749.856-.963 1.391-.107.322-.214.536-.321.857-.856 3.852-1.712 7.811-2.782 11.556-1.177 3.959-2.461 7.918-3.959 11.878-1.391 3.852-2.996 7.704-4.708 11.449-1.712 3.745-3.531 7.49-5.564 11.129-2.034 3.638-4.067 7.169-6.421 10.7-.321.535-.642 1.07-.963 1.712-.642 1.177-1.177 2.354-1.712 3.531-.321.642-.535 1.177-.856 1.712.107.107.321.107.428.214 5.885-6.741 11.343-13.696 16.265-21.187 3.638-5.457 6.741-11.235 8.56-17.655Zm.749-14.125c.321-.107.749.321.856 1.07-.107.107-.214.321-.321.428-.321.107-.963-.428-.963-.749-.107-.428.107-.642.428-.749Zm-9.63 30.282c-.642.214-1.712-.749-1.819-1.391-.107-.749.321-1.07.963-1.284.642-.107 1.284.642 1.391 1.926 0 .107-.214.642-.535.749ZM256.9 292.569c-.321 1.819-.642 3.638-.857 5.457-.642 4.494-1.284 8.989-1.712 13.59-.214 1.498-.321 2.996-.428 4.494 0 .321 0 .535-.107.856 0 1.391.214 2.568.856 3.852.214.428.535.963.963 1.391 3.211 4.067 6.421 8.133 9.417 12.306 1.07 1.391 2.033 2.782 3.103 4.173 3.21 4.494 6.313 9.096 7.918 14.553 2.676 9.095 3.853 18.405 4.709 27.821.107 1.391.214 2.675.321 4.066.107 1.819.321 3.638.535 5.457.107.964.214 1.82.214 2.783l.321 2.889c.214-.214.428-.321.535-.428.321-.321.535-.535.856-.749l.321-.321c.321-.214.642-.535.856-.749.321-.428.642-.856.749-1.391.107-.321.107-.749.107-1.07 0-.214 0-.429-.107-.643-.107-.963-.214-1.926-.214-2.889 0-.963 0-1.926-.107-2.996-.107-1.605-.107-3.21-.214-4.815v-1.391c0-.749 0-1.391-.107-2.14v-8.24c0-1.498.107-2.996.107-4.494-2.996-6.741-5.778-14.338-7.705-21.294-3.424-11.984-2.782-25.146-3.424-37.665-.214-4.816-.214-9.845-.428-14.66-.107-1.712-.214-3.424-.428-5.136 0-.428-.107-.749-.107-1.177-.856-6.849-3.531-13.055-5.136-19.689-1.177-4.601-.963-9.845-1.07-14.874 0 .107 0 .107-.107.214 0 .107-.107.214-.107.321v.107c0 .107 0 .107-.107.214-1.712 7.49-3.531 14.874-5.243 22.364-.535 2.461-1.177 4.922-1.712 7.49-.535 2.355-.963 4.602-1.391 6.956-.107.642-.214 1.284-.428 1.926l-.642 3.531Zm25.895 93.094c.428-.107.535.321.535.642 0 .214-.214.428-.321.642-.214-.214-.428-.428-.749-.642.321-.321.428-.642.535-.642Zm-1.284-22.15c.749-.107.963.642.963 1.177 0 .321-.428.749-.642 1.07-.428-.321-.749-.749-1.284-1.177.428-.535.642-.963.963-1.07Zm-15.837-38.843c-.428-.321-.856-.642-1.177-1.07-.107-.107.214-.642.321-.856.535.321.963.642 1.712.963-.428.428-.642.749-.856.963Zm-1.284-37.344c.535.321.963.642 1.712.963-.428.535-.642.749-.856.963-.428-.321-.856-.642-1.177-1.07-.214-.107.107-.535.321-.856Zm43.337 121.236c1.712-.963 3.424-1.926 5.029-2.996l4.815-3.21c.963-.642 2.033-1.391 2.996-2.033.107-.107.214-.107.321-.214 3.211-2.14 6.314-4.28 9.631-6.099l.321-.642c0-2.783-.107-5.672-.107-8.454-4.815 5.243-9.738 10.273-14.66 15.302a306.879 306.879 0 0 0-8.346 8.346Zm-99.622-98.337a130.04 130.04 0 0 1 5.137 9.309c3.21 6.314 5.992 12.841 8.453 19.475 1.177 3.317 2.354 6.634 3.424 10.059.214.535.321 1.07.535 1.712 1.177 3.852 2.14 7.811 4.173 11.449.214 0 .321 0 .535-.107-.214-4.066-.321-8.132-.535-12.198-.107-1.391-.107-2.675-.214-4.067 0-.428-.107-.856-.214-1.177-.107-.321-.214-.749-.428-1.177l-5.136-11.235c-.963-2.033-1.819-4.066-2.782-6.099-1.391-2.462-2.568-5.244-3.424-6.956a85.243 85.243 0 0 0-10.059-14.98c-.856-1.07-1.819-2.034-2.782-3.104a80.733 80.733 0 0 0-4.28-4.28c-1.07-.963-2.14-1.926-3.103-2.889.642.963 1.391 2.033 2.033 2.996l.642.963c.749 1.177 1.605 2.354 2.354 3.638.321.535.642 1.07 1.07 1.606.321.535.642.963.963 1.498 1.284 1.712 2.461 3.638 3.638 5.564Zm20.117 39.485c.214-.214.535-.107.749.214l.321.642c-.214.214-.321.535-.535.642-.107.107-.428-.107-.535-.214-.214-.107-.428-.321-.321-.535 0-.214.107-.535.321-.749Zm-11.021 83.998c1.391.321 2.889.642 4.28.856 1.391.214 2.996.321 4.601.428.749 0 1.498.001 2.247.108 1.498 0 2.996 0 4.494-.108 1.498-.107 2.997-.214 4.495-.214 2.247-.107 4.494-.321 6.741-.428.428 0 .856-.321 1.284-.642.107-.107.321-.214.535-.321-.428-.535-.535-.749-.749-.856-3.959-3.745-7.811-7.49-11.771-11.235-2.247 1.284-6.527 1.177-9.951.535-10.808-2.033-21.294-6.42-31.887-9.631.214.107.535.214.749.428.214.107.428.321.642.428.214.108.428.322.642.429l.107.107.535.535.107.107c.214.214.321.321.428.535l.107.107c.107.214.321.321.428.535 0 .107.107.107.107.214.107.214.214.428.428.642 0 .107.107.107.107.214.107.321.321.535.428.856.107.214.214.321.321.535.107.214.214.321.321.535.856 1.391 1.712 2.675 2.675 3.852 1.819 2.354 3.959 4.387 6.206 6.099 1.177.856 2.354 1.605 3.531 2.354 1.177.749 2.461 1.284 3.746 1.819 1.284.321 2.675.749 4.066 1.177Zm15.622-5.136h.214c.963-.107 1.284.749 1.605 1.391.108.428-.214 1.07-.428 1.605l-.107.107c-.428.214-1.605-.535-1.819-1.284-.428-.749-.107-1.712.535-1.819Zm-26.965-6.955c0 .107 0 .107 0 0-.321.214-.963-.214-1.177-.642-.107-.428 0-.856.428-.963h.107c.535-.107.749.428.856.749.214.214-.107.642-.214.856Zm67.199 24.076c-.321-6.42-1.177-9.738 3.103-12.627h-.749c-.428 0-.749.107-1.177.107h-1.926c-.321 0-.642 0-1.07-.107-.214 0-.428 0-.642-.107h-.428c-.642-.107-1.177-.107-1.819-.214h-1.284c-.428.107-.856.214-1.177.321-.535.214-.963.428-1.498.642-3.531 1.284-7.063 1.605-10.594-.214-.107-.107-.321-.107-.428-.107-.107 0-.321-.107-.428-.107-.107.107-.321.214-.428.321.428.963.856 1.926 1.284 2.783.214.321.321.535.535.856 1.391 1.819 4.066 3.745 5.672 5.457 3.424 3.852 7.169 6.634 8.453 10.165.749 1.712 1.177 5.672 1.712 10.273.428 1.819.749 3.852.749 6.634.107.535 0 1.177.107 2.033.107-.107.107-.214.214-.428.963-6.634 2.14-18.619 1.819-25.681Zm-8.988-6.955-.107.107c-.428.214-1.605-.535-1.819-1.284-.321-.642.107-1.605.642-1.713h.214c.963-.107 1.284.75 1.605 1.392 0 .321-.428.963-.535 1.498Zm19.047-35.098c1.605 2.354 3.424 4.708 5.029 6.848.749-1.712 1.498-3.424 2.247-5.029.749-1.605 1.498-3.317 2.354-4.922.535-1.177 1.177-2.247 1.712-3.317 1.712-3.317 3.531-6.635 5.136-10.059 2.997-6.313 5.779-12.626 8.24-19.154.749-1.926 1.391-3.959 2.033-5.885.642-2.033 1.284-3.959 1.819-5.992.535-2.033 1.07-3.959 1.605-5.992 1.07-3.96 2.14-8.026 3.317-11.985.642-2.033 1.177-3.959 1.819-5.885.321-.856.535-1.712.856-2.568.107-.321.214-.535.321-.856 0-.107 0-.107.107-.214.428-1.284.963-2.675 1.391-3.96.107-.321.214-.535.321-.856-.749 0-1.498-.107-2.14-.214-1.07-.107-2.247-.321-3.317-.428-2.14 5.137-3.852 10.38-4.815 15.944a693.72 693.72 0 0 1-3.531 20.652c-.214 1.177-.428 2.354-.749 3.531-.214 1.07-.535 2.033-.749 2.996-1.926 7.063-4.601 13.804-8.668 20.01-.428.749-.963 1.391-1.391 2.14-.963 1.391-2.033 2.676-3.103 3.96-1.07 1.284-2.247 2.461-3.424 3.638-1.819 1.712-3.638 3.424-5.671 5.029l-.321.321c-.642.535-1.07 1.284-.428 2.247Zm4.066-1.177h.214c.963-.107 1.284.749 1.605 1.391.107.428-.214 1.07-.428 1.605 0 .107-.107.107-.107.107-.428.214-1.605-.535-1.819-1.284-.428-.749-.107-1.712.535-1.819Zm-91.81 23.755c-.107-.107-.214-.107-.321-.214-.214-.107-.428-.214-.749-.214h-.321c-.749 0-1.391.107-2.14.214-.642.107-1.284.107-1.927.214-2.247 2.568-7.169 4.601-9.095 6.206-6.313 4.709-11.235 10.38-17.656 14.874-2.247 1.498-4.494 2.889-6.741 4.28-.214.321-.535.642-.749.856l-.107.107c1.819-1.07 3.638-2.033 5.35-3.103 3.531-2.033 7.062-4.066 10.594-5.992 1.712-.963 3.531-1.926 5.35-2.889 2.247-1.284 4.601-2.461 6.955-3.638 1.819-.964 3.745-1.82 5.671-2.676 3.318-1.391 6.849-2.568 10.487-3.103-.749-.856-1.498-1.605-2.247-2.461-.749-.856-1.605-1.712-2.354-2.461Zm-10.38 5.992c-.214-.214-.535-.428-.642-.642-.107-.107.107-.321.214-.535.321.214.535.321.963.535-.321.321-.428.428-.535.642Zm8.347-1.284c-.642.214-1.712-.749-1.819-1.391-.107-.749.321-1.07.963-1.284.642-.107 1.284.642 1.391 1.926 0 .214-.214.642-.535.749Zm29.854-47.296c3.21 5.35 6.527 10.808 9.844 16.158a299.148 299.148 0 0 0 6.207 9.737c2.14 3.21 4.28 6.421 6.527 9.524.321.428.642.856.963 1.177 2.247 2.782 5.136 5.136 7.811 7.597l1.284.963c1.391.749 2.996 1.07 4.816.642-.963-.749-1.82-1.498-2.569-2.354-.321-.321-.535-.642-.749-.963-.535-.642-.963-1.391-1.284-2.033a4.998 4.998 0 0 1-.535-1.07c-.749-1.498-1.284-2.996-1.712-4.708-.214-.749-.428-1.391-.642-2.14-.107-.428-.321-.856-.428-1.284-.107-.214-.214-.535-.214-.749-.214-.535-.321-1.07-.535-1.606-.107-.214-.107-.321-.214-.535 0-.107 0-.107-.107-.214-.214-.535-.321-.963-.535-1.498-.535.321-1.284.428-2.14.107-1.07-.428-4.708-4.922-5.885-5.778-1.926-1.712-4.494-3.317-6.207-4.922-3.959-3.852-6.527-12.306-8.881-17.549-5.136-11.449-8.132-24.076-14.125-34.991-5.885-10.593-13.161-19.902-20.33-29.64-3.532-4.815-7.705-9.416-12.092-13.804-1.712-1.605-3.317-3.21-5.136-4.815a81.414 81.414 0 0 0-4.601-3.959c-.321-.214-.536-.428-.857-.642-.428-.321-.963-.749-1.391-1.07-.535-.428-.963-.749-1.498-1.177-.214-.214-.428-.321-.642-.535-.642-.535-1.391-1.177-2.033-1.712.963 1.605 1.926 3.21 2.889 4.708.749 1.177 1.605 2.461 2.354 3.638.214.428.535.749.75 1.177.535.856 1.07 1.605 1.712 2.461l1.926 2.569c.214.321.428.535.749.856.963 1.07 2.033 2.14 3.103 2.996a52.725 52.725 0 0 1 3.531 3.21 66.234 66.234 0 0 1 8.667 11.128c.535.856 1.07 1.819 1.605 2.675a23.08 23.08 0 0 1 1.499 2.783c.642 1.284 1.284 2.675 1.926 3.959 1.926 3.959 3.531 8.132 5.136 12.198 1.177 3.104 2.568 5.993 4.066 8.882 1.498 2.889 3.103 5.671 4.815 8.56 1.07 1.819 2.247 3.745 3.317 5.564 3.318 5.672 6.528 11.129 9.845 16.479Zm-44.835-78.969c-.321.107-.749-.214-.856-.535 0-.107-.107-.214-.107-.214-.107-.428.214-.643.535-.75.321-.107.642.215.749.857v.214c-.107.107-.214.428-.321.428Zm23.648 34.99c-.428-.321-.856-.642-1.177-1.07-.107-.107.214-.642.321-.856.535.321.963.642 1.712.963-.428.428-.642.749-.856.963Zm128.834 68.697c0-2.675.107-5.35.107-8.025-1.177.642-2.354 1.284-3.531 2.033-.856.535-1.712 1.07-2.568 1.498-7.598 4.601-15.195 9.203-21.401 12.948.535-.107 1.177-.321 1.712-.535 1.819-.535 3.852-1.177 5.992-1.712.749-.214 1.498-.428 2.14-.642 2.247-.642 4.601-1.178 6.848-1.713a70.422 70.422 0 0 0 2.354-.642c.107 0 .214 0 .214-.107.107 0 .214-.107.321-.107.749-.214 1.498-.428 2.248-.749.749-.321 1.498-.535 2.247-.856.107-.107.214-.107.428-.214.749-.321 1.498-.642 2.247-1.07.321 0 .428 0 .642-.107Zm-4.815-.963c-.107.107-.107 0 0 0-.321.214-.963-.214-1.177-.642-.107-.428 0-.856.428-.963h.107c.535-.107.749.428.856.749.107.214-.214.535-.214.856Zm-140.391 2.996c-.428.107-.749.107-1.177.214.107.214.214.321.428.321h2.033c.535 0 1.07.107 1.498.107a11.724 11.724 0 0 1-2.782-.642Zm4.922-12.733 2.247 2.247c.536.535 1.178.963 1.713 1.391 1.712 1.177 3.638 1.605 6.099 1.284 3.745-.535 7.597-.428 11.877-.642-.214-.107-.321-.321-.535-.535-2.889 1.07-9.416-1.177-11.77-1.819-5.029-1.177-9.096-3.638-13.162-6.955-.535-.428-1.07-.856-1.605-1.391.535.642.963 1.391 1.498 2.033.107.214.321.321.428.535.428.535.856 1.07 1.391 1.605.321.321.642.749.963 1.07.214.428.535.749.856 1.177Zm25.575-1.712c2.675 2.354 5.457 4.708 8.132 7.062 1.391 1.177 2.782 2.461 4.28 3.638.963.749 1.819 1.498 2.782 2.247-1.819-2.889-3.531-5.778-5.35-8.56-.749-1.177-1.391-2.247-2.14-3.424-1.177.214-3.21-1.284-4.601-2.354a93.656 93.656 0 0 1-6.849-5.886c.107.107.107.321.107.428 0 .214-.214.428-.321.642-.214-.214-.428-.428-.749-.642.214-.214.428-.535.535-.535h.214c-3.852-3.638-7.704-7.276-12.198-10.486-9.524-6.848-19.154-13.376-28.142-20.331-4.174-3.21-7.705-6.527-12.306-8.239-2.889-1.07-5.992-1.926-9.095-2.676-.321.108-.642.214-1.07.321-.107 0-.108.001-.215.108a7.377 7.377 0 0 0-1.07.428c.214.107.321.214.428.321 7.705 1.819 14.66 5.35 21.08 9.951 1.927 1.391 3.746 2.782 5.672 4.173 4.173 3.103 8.346 6.313 12.412 9.631 1.391 1.07 2.675 2.247 4.066 3.317 2.783 2.354 5.458 4.601 8.24 6.955 5.457 4.387 10.807 9.203 16.158 13.911Zm78.755-40.341c.214-1.07.321-2.247.535-3.317 0-.107 0-.214.107-.428 0-.214.107-.428.107-.642.107-.749.321-1.605.428-2.354.107-.321.107-.749.214-1.07l.642-2.89c0-.107 0-.214.107-.321.214-1.07.428-2.033.749-3.103v-.107c.107-.321.214-.749.321-1.07 0-.107.107-.214.107-.321.107-.642.321-1.177.428-1.819.107-.428.214-.749.321-1.177.214-.856.535-1.712.749-2.568.107-.214.107-.428.214-.535v-.107c.856-4.387 2.14-8.561 3.639-12.734h-.107c-1.285-.214-2.462-.856-3.639-1.498-2.033 4.28-3.852 8.561-5.671 13.055-.107.214-.107.428-.214.642-.107.428-.214.856-.214 1.284v.642c-.214 2.996-.321 5.992-.535 9.095-.214 3.103-.321 5.993-.535 9.096-.321 5.671-.856 11.342-1.284 17.121.856-1.713 1.712-3.425 2.033-5.244.642-3.317.963-6.42 1.498-9.63Zm.428-22.792c.321.214.535.321.963.535a2.927 2.927 0 0 1-.428.535c-.214-.214-.535-.428-.642-.642-.214 0 0-.214.107-.428Zm-51.362-34.456c1.07 4.281 2.354 8.454 3.531 12.627 0 .107.107.321.214.428.107.107.107.321.214.428.214.321.321.642.535 1.07.107-.107.107-.214.214-.214.107-.107.107-.214.214-.214v-.107c.856-4.922 1.712-9.951 2.568-14.874-.321-1.284-.749-2.461-1.07-3.852-.428-1.712-.856-3.424-1.177-5.243-1.284-6.206-2.14-12.627-2.675-18.405-.214-2.889 0-5.885-.321-8.881 0-.428-.107-.749-.214-1.177-.321-.642-.535-1.285-.749-1.927-.214.535-.214.964-.214 1.392-.642 9.095-1.391 18.19-2.033 27.179-.107.963-.107 1.926-.214 2.889v2.675c0 .535.107 1.177.214 1.819.107.321.107.535.214.856.214 1.284.428 2.354.749 3.531Zm2.889-1.819c-.428-.321-.963-.642-1.177-1.07-.107-.214.214-.856.535-.963.428-.214 1.177.642 1.284 1.498-.107.107-.535.535-.642.535Zm72.335 130.332c2.889-3.531 6.956-6.313 11.022-8.346.107-.107.321-.107.428-.214v-2.461c-.107 0-.321 0-.428.107-8.454 1.926-17.014 3.745-25.467 5.671a49.322 49.322 0 0 0-3.746 1.07c-1.284.428-2.568.749-3.852 1.177 4.066 3.959 4.066 3.959 2.782 11.021.428.107.963.321 1.391.428 3.639.857 6.956 0 10.059-1.712.428-.214.856-.535 1.284-.749 1.177-.749 2.461-1.498 3.638-2.354.963-1.284 1.926-2.461 2.889-3.638Zm-12.626 4.815c-.642.214-1.712-.749-1.819-1.391-.107-.749.321-1.07.963-1.284.642-.107 1.284.642 1.391 1.926-.107.214-.214.642-.535.749Zm2.14-6.848c-.428-.321-.963-.642-1.177-1.07-.107-.214.214-.856.535-.963.428-.214 1.177.642 1.284 1.498-.214.107-.642.535-.642.535Zm6.741-2.033c-.321-.642.107-1.605.642-1.712h.214c.963-.107 1.284.749 1.605 1.391.214.428-.214 1.07-.428 1.605l-.107.107c-.535.214-1.712-.642-1.926-1.391Zm-46.654-15.409c-2.461-8.132-5.35-16.479-6.741-24.932-3.104-19.368-12.413-37.024-19.582-55.107-2.782-7.063-6.421-13.59-8.026-20.545v3.21c0 8.453-.214 17.014 0 25.467.107 2.247.107 4.601.214 6.848.321 6.849.749 13.697 1.177 20.652 0 .428.107.856.107 1.284 0 .428.107.856.214 1.284.107.856.321 1.712.535 2.568l.321 1.285c.321.856.535 1.712.964 2.461.214.428.428.856.642 1.177a457.97 457.97 0 0 1 5.35 10.058 460.318 460.318 0 0 0 5.35 10.059c3.103 5.992 5.992 12.091 7.918 18.511a64.66 64.66 0 0 1 1.605 6.528c.107.856.428 1.605.643 2.354.107.321.321.749.535 1.07a6.072 6.072 0 0 0 1.284 1.926c.749.963 1.605 1.712 2.675 2.461.321.214.749.428 1.07.642.107.107.321.107.428.214.214.107.535.214.749.321.214.107.428.107.642.214.214.107.428.107.642.214.214.107.535.107.749.214.214 0 .321.107.535.107.321.107.642.107.963.107.107 0 .321 0 .428.107.321 0 .749.107 1.07.107h1.819c.428 0 .963 0 1.391-.107h.107c.535 0 .963-.107 1.498-.107.214 0 .321-.107.535-.107.428-.107.856-.214 1.391-.214.214-.107.428-.107.749-.214.535-.107 1.07-.321 1.605-.535 1.713-.642 3.318-1.498 4.602-2.568-10.059 1.819-13.269-7.704-16.158-17.014Zm-29.212-38.2c-.428-.321-.749-.75-1.284-1.178.428-.428.642-.963.963-.963.749-.107.963.642.963 1.177 0 .321-.428.643-.642.964Zm.535-23.007c-.214-.214-.535-.321-.642-.642-.107-.107.107-.428.321-.535.214-.107.642.428.749.856-.107.107-.321.321-.428.321Zm17.227 52.861c-.107.107-.428-.107-.535-.214-.214-.107-.428-.321-.428-.535 0-.214.107-.642.321-.749.214-.214.535-.107.749.214l.321.642c-.107.214-.214.535-.428.642Zm9.952 25.36c-.214.107-.642-.214-.963-.428-.321-.214-.642-.642-.642-.963 0-.428.214-1.07.535-1.284.428-.321.963-.214 1.284.428.214.321.428.642.642 1.177-.321.321-.535.856-.856 1.07Zm-48.473 14.66c-.428 0-.963.107-1.391.321-.107.107-.321.107-.428.214a8.16 8.16 0 0 0-1.819 1.391c-.749.749-1.391 1.712-2.033 2.675-.321.428-.535.963-.749 1.498a9.883 9.883 0 0 1-.75 1.498c1.071-.535 2.034-1.177 3.104-1.712 3.103-1.712 6.206-3.531 9.202-5.243-1.498-.214-3.317-.535-5.136-.642Z"></path>
  <path fill="#89AF27" d="M294.244 382.239c3.638-5.778 5.671-12.091 6.955-18.726-3.745 5.672-5.029 12.306-6.955 18.726Zm40.662-254.993c-.535 3.853-.321 7.812-.321 11.664l.642 44.621c0 2.247.642 4.387.749 6.634.535 12.627 1.07 25.36 1.498 37.987.107 3.959-.214 8.025-.428 12.092-.107 1.391.428 2.247 2.033 1.926 1.498-.321 2.782.107 3.852 1.177.642.642 1.498 1.712 1.284 2.247-.214.856-1.177 1.712-2.033 2.247-1.284.749-2.782.963-4.066 1.605-.535.321-1.07 1.177-1.07 1.712-.214 5.564-.535 11.129-.535 16.693-.107 5.029-.107 10.058-.107 15.088v23.969c0 4.066 0 8.239.107 12.305.428 15.944.963 31.781 1.498 47.724v1.391c0 .535.214 1.177.321 1.82 1.498-.536 2.889-.857 3.959-1.606 1.284-.963 2.14-2.354 3.317-3.424 2.141-2.033 4.388-4.066 6.528-5.992.963-.856 1.712-.642 2.354-.214.321.214.642.535.856.856.214.214.428.535.535.749.321.749.107 1.605-.642 2.354-1.177 1.284-2.461 2.568-3.638 3.852-2.568 2.889-5.243 5.779-7.812 8.668-1.391 1.605-2.889 3.21-4.28 4.815-.642.642-1.07 1.712-1.07 2.675v21.722c0 3.745 0 7.49.107 11.236v8.346c0 5.778.214 11.557.428 17.335 0 .963 0 2.14 1.391 2.033 1.391-.214 2.889-.321 4.066-1.07 3.211-2.033 5.244-.107 7.063 2.247.963 1.284-.107 3.745-1.605 4.173-2.033.642-3.959 1.284-5.886 2.033-2.996 1.07-5.35 2.247-5.029 6.42.321 4.602-.321 9.31-.428 14.018 0 2.461.214 5.029.428 7.49.321 3.532.856 6.956 1.177 10.38.107 1.177.428 1.712 1.605 1.391 1.284-.321 2.568-.856 3.852-1.177 6.421-1.284 12.734-2.568 19.154-3.745 1.605-.321 3.211-.535 4.923-.856-.321-1.177-.642-2.354-.856-3.424-2.462-11.664-.856-25.468-.856-37.452.107-14.018.107-28.142.214-42.16a4.053 4.053 0 0 1 0-1.605v-57.248c0-8.239 0-16.478.107-24.718-1.071-.642-2.248-1.07-3.318-1.819-1.177-.749-2.033-1.819-3.103-2.675-.963-.963-.856-1.819-.107-2.889.856-1.07 1.819-2.033 3.424-1.605 1.07.321 2.14.749 3.211 1.177v-24.397c.107-22.364.107-44.728.214-67.092v-7.063c-.214.214-.428.428-.642.749-1.713 1.926-3.104 2.033-4.709.535-.856-.856-1.07-1.712-.428-2.675 1.819-2.675 3.638-5.35 5.565-7.918.107-.107.214-.214.321-.428.107-25.467.214-51.041.428-76.509.107-10.593-2.248-21.187-9.738-29.105-4.601-4.815-9.416-3.531-14.66-4.494-1.605 3.638-3.21 7.276-4.708 10.914-.963 2.461-1.391 5.137-1.926 7.812-1.284 5.564-2.461 11.021-3.21 16.478Zm9.737 154.73c.856-.857 1.392-1.82 2.034-1.82 1.605-.214 1.819 1.284 1.712 2.355 0 .321-.214.749-.535 1.07-.214.321-.535.642-.749.963l-1.07-1.07c-.429-.428-.857-.963-1.392-1.498Zm8.026 138.357c0 .107-.214.214-.321.214-.535.214-1.712-.428-2.461-1.284-.428-.428-.856-.963-.963-1.498-.428-1.07.107-2.461.963-3.103.214-.107.321-.214.535-.214h.428c2.033-.107 2.568 1.605 2.889 2.782.214.856-.642 2.033-1.07 3.103Zm-.321-324.867c.428.107 1.07.321 1.07.535.107.856 0 1.82 0 2.782 0 .107-.428.214-.856.535-.214-.642-.535-.963-.535-1.39 0-.857.214-1.606.321-2.462Zm-2.14 34.456c3.852 4.173 6.099 9.416 8.132 14.552.321.749.642 1.498.749 2.354.107.535-.107 1.391-.428 1.712-.321.321-1.391.535-1.712.321-1.177-.856-2.568-1.819-3.21-3.103-1.926-3.424-3.531-7.062-5.35-10.486-.642-1.284-1.391-2.461-2.247-3.959.642-.749.963-1.391 1.498-1.712.856-.428 1.605-.642 2.568.321Zm-3.959-25.575c.535.535 1.177 1.07 1.498 1.713.107.321-.535.963-.856 1.391-.535-.642-1.07-1.177-1.713-2.034l1.071-1.07Zm45.048 261.413c.107 2.461.321 4.816.214 7.277l-.321 14.98c1.606-1.07 3.853-1.498 6.421-2.14 3.531-.856 7.49-.535 10.914-1.819 3.103-1.177 5.457-3.745 8.026-5.671.535-.321 1.07-.749 1.605-1.07-.321-1.07.321-2.14 1.177-2.889.749-.642 1.712-1.605 2.889-.642.214.107.321.321.535.428 3.638-2.675 6.955-5.778 7.918-10.808 1.177-6.527.107-14.338.107-20.973.107-14.445-.856-28.891-.749-43.444 0-8.56.107-17.227.214-25.895-.749-.963-1.284-2.247-1.177-3.317.107-.963.535-1.605 1.177-1.926.107-15.409.214-30.924-.428-46.226-.428-11.343-2.354-23.113-4.28-34.349-2.033-11.556-6.206-23.113-2.889-34.883 1.712-6.1 4.494-10.915 2.14-17.442-2.247-6.313-5.457-6.527-9.523-7.062-.107.107-.107.214-.214.321-.643.963-1.285 2.033-1.392 3.103-.107.963.214 2.14.642 3.103.322.749 1.285 1.284 1.713 2.033.963 1.391 2.033 2.782 2.675 4.28.321.749-.107 2.14-.749 2.675-.535.428-1.819.214-2.568 0-.642-.214-1.285-.749-1.82-1.391-1.177-1.391-1.819-.856-2.247.535-.214.642-.428 1.391-.428 2.033 0 3.959 0 7.919.107 11.878.428 10.486.856 20.866 1.391 31.352.214 3.21.749 6.421.856 9.738.428 8.667.856 17.227 1.177 25.895.107 1.819.75 2.782 2.462 3.638 1.07.535 1.712 2.247 1.926 3.531.107.642-1.07 2.033-1.819 2.247-1.819.428-1.712 1.391-1.391 2.675.107.535.321.963.321 1.499.856 7.704 1.712 15.408 2.354 23.113.963 11.342 1.819 22.685 2.675 34.027.428 5.243.535 10.594.856 15.944.107.963.642 2.033 1.391 2.675 2.14 2.033 4.922 3.424 6.206 6.313.535 1.177.321 3.317-.642 4.066-1.284.963-2.354.321-3.317-.642a17.462 17.462 0 0 0-2.14-1.819c-1.177-.856-1.926-.535-2.033.963-.535 6.314-.963 12.734-1.391 19.154-.214 3.21-.321 6.528-2.247 9.417-.321.428-.107 1.391.107 1.926.749 1.498 1.926 2.889 2.675 4.387.642 1.391 1.391 2.996 1.391 4.601s-1.819 2.568-2.782 1.605c-1.712-1.605-3.424-3.317-4.923-5.243-1.284-1.605-1.819-1.926-3.638-.856-5.243 3.103-10.593 5.885-16.799 6.527-1.713.214-2.462.963-2.355 2.568Zm22.364-205.449c-.749-.107-1.284-1.391-2.247-2.675.963-.642 1.605-1.391 2.354-1.605 1.499-.321 1.499 1.07 1.606 2.033.214 1.391-.642 2.354-1.713 2.247Zm9.524 96.411c-.642-.856-1.712-1.605-1.712-2.461 0-.749 1.177-1.498 1.819-2.354.642.856 1.284 1.605 2.14 2.782a29.516 29.516 0 0 1-2.247 2.033Zm-142.53-120.701c0 .321-.214.642-.321.963-1.285 3.852-2.462 7.811-2.355 11.985.107 4.173.107 8.346.321 12.626.642 14.446 1.178 28.891 2.034 43.337.321 5.778 1.177 11.557 1.605 17.335.642 9.523 1.07 19.047 1.605 28.57h-.107c.214 7.383.428 14.767.749 22.043.214 3.745.749 7.49.963 11.236 0 .535.107 1.07.107 1.712 0 1.177.107 2.247.321 3.424.642 4.173 2.033 8.025 3.852 11.77.107.321.321.535.428.856 1.07 1.82 2.461 3.532 3.745 5.244.214.321 1.498.535 1.712.214 2.247-2.568 4.28-5.351 6.528-7.919.535-.535 1.605-1.177 2.14-.963.428.214.856.428 1.07.749.856.963.856 2.354.107 3.639-1.07 1.605-2.247 3.103-3.21 4.708-2.462 4.173-2.676 4.708.749 6.313.428.214.963.428 1.605.749.214.107.428.214.749.214.321.107.642.107.963.214.214 0 .321.107.535.107 1.498.321 2.996.535 4.494.749.642.107 1.284.214 2.033.321 2.033.214 4.173.428 6.206.535 1.391 0 2.782.107 4.281 0h1.07c.856 0 1.819-.107 2.675-.214 1.498-.107 2.14-.749 2.14-2.354v-26.216c-.535.107-1.07.107-1.605.321-2.14.642-4.601.321-7.17-.428a34.696 34.696 0 0 1-2.996-1.177c-.749-.321-1.498-.749-2.247-1.177-1.391-.749-2.675-1.712-3.852-2.568-3.638-2.89-6.634-6.314-7.597-9.096-.642-1.712-.642-5.457-.856-7.169-.749-6.313-2.355-12.199-3.853-18.405-.963-3.745-1.391-7.704-1.712-11.771-.963-.749-1.926-1.391-2.996-2.14-1.391-.963-1.498-2.568-.856-3.745.428-.856 1.712-1.177 2.782-1.926.321.214.535.321.856.428 0-8.453.642-17.014.749-24.825 0-4.494 0-8.988.107-13.59 0 .107-.107.214-.107.321-.963-.321-2.14-.321-2.782-.856-2.461-2.033-4.815-4.066-7.169-6.313-.963-.963-2.14-2.033-1.177-3.638.428-.749 1.07-1.284 1.926-2.14 1.605.856 2.889 1.391 3.959 2.247 2.033 1.712 4.28 3.531 5.457 5.885.107-10.914.107-21.722.214-32.636 0-1.391-.107-2.782-.214-4.066-.428-.857-.535-2.034-.321-2.676-.963-6.42-3.424-11.877-7.704-15.622-1.391 0-2.782.107-4.28.428-2.782.214-5.243 1.07-5.35 4.387Zm13.91 161.042c-.856-.642-1.712-1.284-2.247-2.247-.214-.321.535-1.605 1.07-1.819.749-.428 2.247 1.391 2.247 3.103-.214.214-.963 1.07-1.07.963Zm29.427 11.236c.749.642 1.284 1.819 1.284 3.424-.214.214-.642 1.284-1.177 1.391-.214.107-.535 0-.856-.107a4.482 4.482 0 0 1-1.499-.963c-.535-.535-.963-1.177-.963-1.712-.107-1.498.642-2.14 1.926-2.354.429-.214.857 0 1.285.321Zm-32.851-29.32 3.21 2.141c-.856.963-1.284 1.391-1.712 1.926-.749-.749-1.712-1.391-2.247-2.248-.214-.321.428-1.177.749-1.819Z"></path>
</svg>
