
<svg width="157px" height="63px" viewBox="0 0 157 63" version="1.1" xmlns="http://www.w3.org/2000/svg" xmlns:xlink="http://www.w3.org/1999/xlink">
    <g id="Page-1" stroke="none" stroke-width="1" fill="none" fill-rule="evenodd">
        <g id="emojisyntax" transform="translate(0.975000, 0.413750)" fill-rule="nonzero">
            <g id="Group" transform="translate(31.231875, 31.232500) scale(-1, 1) rotate(-180.000000) translate(-31.231875, -31.232500) translate(0.000000, -0.000000)" fill="#8899A6">
                <g id="Clipped" transform="translate(-0.000000, 0.000000)">
                    <path d="M48.56,27.805 C47.4825,27.805 46.435,27.6675 45.42625,27.43625 L27.43,45.43 C27.6625,46.4375 27.79875,47.485 27.79875,48.565 C27.79875,56.2425 21.57375,62.465 13.89875,62.465 C12.33625,62.465 10.25375,60.8775 11.98625,59.14375 L17.18625,53.94625 C17.18625,53.94625 18.91875,50.48 15.4525,47.01375 C11.98625,43.5475 8.52,45.28125 8.52,45.28125 L3.32,50.48125 C1.58875,52.215 -1.77635684e-15,50.14125 -1.77635684e-15,48.56875 C-1.77635684e-15,40.89125 6.225,34.66625 13.9,34.66625 C14.98,34.66625 16.025,34.80375 17.035,35.03375 L35.02875,17.0375 C34.79625,16.0275 34.66125,14.9825 34.66125,13.9025 C34.66125,6.2275 40.88625,0 48.56125,0 C50.12375,0 52.20625,1.59 50.47375,3.325 L45.27375,8.5225 C45.27375,8.5225 43.5425,11.98875 47.00875,15.455 C50.47375,18.92 53.94125,17.1875 53.94125,17.1875 L59.14125,11.9875 C60.8725,10.25375 62.46375,12.3275 62.46375,13.9 C62.46375,21.57875 56.23875,27.805 48.56125,27.805" id="Path"></path>
                </g>
            </g>
            <g id="Group" transform="translate(68.195000, 0.897250)" fill="#000333">
                <path d="M0,30.089 C0,27.336 0.21,24.743 0.63,22.312 C1.05,19.881 1.622,17.634 2.345,15.574 C3.067,13.514 3.912,11.634 4.879,9.934 C5.846,8.234 6.865,6.731 7.939,5.422 C9.013,4.112 10.123,3.005 11.265,2.097 C12.407,1.189 13.515,0.491 14.59,0.002 L16.173,4.455 C15.078,5.295 13.985,6.423 12.893,7.839 C11.797,9.255 10.817,11.013 9.948,13.112 C9.079,15.211 8.37,17.658 7.824,20.452 C7.277,23.244 7.004,26.437 7.004,30.032 L7.004,30.792 C7.004,34.406 7.277,37.609 7.824,40.402 C8.37,43.195 9.079,45.642 9.948,47.742 C10.817,49.842 11.798,51.602 12.892,53.029 C13.986,54.455 15.079,55.589 16.172,56.427 L14.592,60.822 C13.517,60.334 12.408,59.632 11.266,58.712 C10.124,57.792 9.014,56.689 7.94,55.389 C6.867,54.089 5.846,52.589 4.88,50.891 C3.914,49.193 3.067,47.311 2.345,45.251 C1.622,43.191 1.051,40.949 0.631,38.527 C0.211,36.105 0.001,33.507 0.001,30.734 L0.001,30.089 L0,30.089 Z M51.71,30.735 C51.71,33.411 51.494,35.945 51.065,38.338 C50.635,40.73 50.049,42.961 49.307,45.031 C48.564,47.101 47.701,48.991 46.714,50.701 C45.727,52.411 44.678,53.931 43.564,55.271 C42.45,56.611 41.309,57.746 40.137,58.683 C38.965,59.62 37.823,60.333 36.709,60.823 L35.155,56.427 C36.228,55.607 37.312,54.483 38.407,53.057 C39.501,51.631 40.487,49.873 41.367,47.784 C42.247,45.695 42.957,43.244 43.505,40.43 C44.051,37.618 44.325,34.405 44.325,30.79 L44.325,30.03 C44.325,26.435 44.042,23.232 43.475,20.42 C42.908,17.608 42.185,15.147 41.307,13.037 C40.429,10.927 39.447,9.16 38.363,7.734 C37.279,6.308 36.21,5.184 35.155,4.364 L36.708,0 C37.82,0.488 38.963,1.2 40.135,2.14 C41.307,3.08 42.449,4.214 43.563,5.552 C44.677,6.89 45.726,8.412 46.713,10.122 C47.7,11.832 48.563,13.722 49.305,15.792 C50.047,17.862 50.633,20.092 51.063,22.485 C51.493,24.878 51.708,27.412 51.708,30.088 L51.708,30.734 L51.71,30.735 Z M84.933,46.789 C84.933,47.903 84.783,49.046 84.479,50.219 C84.175,51.392 83.759,52.523 83.233,53.616 C82.707,54.709 82.076,55.746 81.343,56.721 C80.61,57.696 79.823,58.567 78.985,59.328 L74.678,57.1 C75.048,56.397 75.395,55.684 75.718,54.96 C76.041,54.236 76.318,53.477 76.552,52.676 C76.786,51.875 76.972,51.026 77.109,50.126 C77.246,49.229 77.315,48.242 77.315,47.168 L77.315,40.313 L84.961,40.313 L84.931,46.789 L84.933,46.789 Z M75.821,18.519 C75.821,17.756 75.949,17.049 76.203,16.394 C76.456,15.74 76.828,15.174 77.316,14.694 C77.803,14.216 78.4,13.836 79.103,13.552 C79.806,13.268 80.597,13.127 81.476,13.127 C82.355,13.127 83.146,13.269 83.849,13.552 C84.552,13.835 85.143,14.216 85.621,14.695 C86.099,15.174 86.471,15.74 86.734,16.395 C86.997,17.05 87.13,17.755 87.13,18.518 C87.13,19.258 86.997,19.953 86.733,20.598 C86.469,21.243 86.098,21.803 85.62,22.282 C85.142,22.761 84.55,23.136 83.848,23.41 C83.146,23.684 82.354,23.82 81.475,23.82 C80.596,23.82 79.805,23.683 79.102,23.41 C78.399,23.137 77.802,22.76 77.315,22.282 C76.827,21.802 76.455,21.242 76.202,20.597 C75.948,19.952 75.822,19.257 75.822,18.517 L75.821,18.519 Z"></path>
            </g>
        </g>
    </g>
</svg>
