<svg xmlns="http://www.w3.org/2000/svg" viewBox="0 0 29 26">
  <g fill="none" fill-rule="evenodd">
    <path fill="#F8C559" stroke="#23221D" stroke-linejoin="bevel" d="M16.9784486,4.20484369 C19.768498,2.4172645 22.7613776,1.36150523 24.7078411,2.42614623 C28.600768,4.55542825 26.8331499,14.3596082 24.5628647,18.0848856 C22.4071385,21.6221845 17.7940994,22.9670789 14.0011886,21.2708584 C17.4382139,20.3577453 19.9602036,17.343001 19.9602036,13.7642476 C19.9602036,11.3258645 18.7894012,7.27236749 16.9563723,4.21835524 Z" transform="translate(1 1)"/>
    <path fill="#F8C559" stroke="#23221D" stroke-linecap="round" stroke-linejoin="bevel" d="M1.97527815,8.56538273 C3.03494079,7.96284293 4.49741079,8.21333333 6.00982831,8.91252138 C5.51729461,10.5928674 5.24191188,12.1944519 5.24191188,13.4010949 C5.24191188,17.3609945 8.20775003,20.6313423 12.0502369,21.133702 C11.574871,21.7429046 10.9706968,22.2731917 10.2507793,22.6826006 C7.33409466,24.3409723 3.62277645,23.3871006 1.96073608,20.5518183 C0.298695716,17.716536 -0.941312837,10.2239167 1.97527815,8.56538273 Z" transform="rotate(1 -50.659 73.656)"/>
    <path fill="#1B6D4F" d="M13,0 C17.4185,0 21,9.58500829 21,14.0051261 C21,18.3036916 17.6127727,21.8103689 13.3625677,21.9999841 L13.362231,18.54632 L16.8364589,14.3124598 L16.8543002,14.2888274 C16.9602129,14.1359825 16.9318271,13.9254577 16.7844454,13.8061978 C16.6293068,13.6806611 16.4010646,13.703787 16.2746522,13.857851 L16.2746522,13.857851 L13.362231,17.4070674 L13.362231,13.2223111 L15.9129633,9.89804839 L15.9300194,9.87385104 C16.0308589,9.71765881 15.9955779,9.50816481 15.8443599,9.39373913 C15.6851832,9.27329104 15.4578214,9.30379305 15.3365331,9.46186728 L15.3365331,9.46186728 L13.362231,12.0350199 L13.3623496,4.40161107 L13.3613557,4.37475581 C13.3475232,4.18856396 13.1910238,4.04177133 13,4.04177133 C12.7998798,4.04177133 12.6376504,4.20287707 12.6376504,4.40161107 L12.6376504,4.40161107 L12.6375318,12.0963726 L10.6160808,9.46186728 L10.5971138,9.43911586 C10.4722269,9.30112023 10.2594719,9.27931345 10.108254,9.39373913 C9.94907719,9.51418722 9.91836243,9.73997416 10.0396506,9.89804839 L10.0396506,9.89804839 L12.6375318,13.2838437 L12.6375318,17.4194818 L9.70347728,13.843505 L9.68377357,13.8213796 C9.55442346,13.6875 9.34106581,13.6725918 9.19368411,13.7918517 C9.03854549,13.9173885 9.01525825,14.1440497 9.14167061,14.2981137 L9.14167061,14.2981137 L12.6375318,18.5585545 L12.6374323,21.9999841 C8.38722734,21.8103689 5,18.3036916 5,14.0051261 C5,9.58500829 8.5815,0 13,0 Z" transform="translate(1 1)"/>
    <path stroke="#23221D" d="M13,22 C17.4185,22 21,18.4185 21,14 C21,9.5815 17.4185,0 13,0 C8.5815,0 5,9.5815 5,14 C5,18.4185 8.5815,22 13,22" transform="translate(1 1)"/>
  </g>
</svg>
