
<svg width="236px" height="236px" viewBox="0 0 236 236" version="1.1" xmlns="http://www.w3.org/2000/svg" xmlns:xlink="http://www.w3.org/1999/xlink">
    <g id="Page-1" stroke="none" stroke-width="1" fill="none" fill-rule="evenodd">
        <g id="papyrus" fill-rule="nonzero">
            <g id="PAPYRUS">
                <g id="paper" transform="translate(21.500000, 47.500000)">
                    <path d="M190.316908,118.286619 C190.973285,117.630242 191.342034,116.740003 191.342034,115.811745 L191.342034,48.428975 C191.342034,47.5007173 190.973285,46.6104786 190.316908,45.9541013 L178.949747,34.5869409 L187.16447,34.5869409 C189.098277,34.5869409 190.665616,33.0186725 190.66447,31.0848658 L190.648115,3.49792499 C190.646969,1.56492871 189.079036,-3.10862447e-15 187.14604,-3.10862447e-15 C185.213044,-3.10862447e-15 183.64697,1.56907875 183.648116,3.50207503 L183.662395,27.5869409 L170.5,27.5869409 C167.381833,27.5869409 165.820249,31.3569376 168.025126,33.5618146 L184.342034,49.8787225 L184.342034,114.361998 L175.016887,123.687145 C173.650052,125.05398 173.650052,127.270058 175.016887,128.636893 L183.648115,137.268121 L183.648115,158.5 C183.648115,160.432997 185.215119,162 187.148115,162 C189.081112,162 190.648115,160.432997 190.648115,158.5 L190.648115,135.818374 C190.648115,134.890116 190.279366,133.999877 189.622989,133.3435 L182.441508,126.162019 L190.316908,118.286619 Z" id="Path-2" fill="#1C8AE5"></path>
                    <path d="M6.53944002,137.166113 L1.39286999,143.336651 C0.86692021,143.967245 0.57943079,144.762687 0.58069398,145.583826 L0.61559862,168.273609 C0.50711673,171.157712 0.86469512,174.432732 2.10895912,177.685311 C4.52943956,184.01259 9.6602339,188 17.5789895,188 C26.8108883,188 32.7169997,184.241565 35.3811729,178.025161 C36.7165256,174.909338 37.0405184,171.734208 36.8200082,168.95578 C36.8090004,168.817082 36.7861019,164.359598 36.7861019,164.359598 L197.068778,164.359598 C197.044053,166.80501 196.791522,169.41169 196.207776,171.871713 C194.788528,177.852707 191.950578,181 186.991416,181 L42.2615947,181 C40.3285981,181 38.7615947,182.567003 38.7615947,184.5 C38.7615947,186.432997 40.3285981,188 42.2615947,188 L186.991416,188 C195.775977,188 200.931833,182.282143 203.018648,173.487885 C203.987319,169.405712 204.203193,165.194005 204.005099,161.483701 C203.981673,161.04492 203.957288,160.721411 203.939014,160.528878 C203.768468,158.732073 202.259555,157.359598 200.454674,157.359598 L33.2861019,157.359598 C31.3531053,157.359598 29.7861019,158.926601 29.7861019,160.859598 L29.7861019,168.792888 C29.8224257,169.295892 29.8310802,169.372628 29.8419505,169.509594 C29.98046,171.254813 29.7659233,173.357273 28.9471577,175.267726 C27.4040686,178.868267 24.0542031,181 17.5789895,181 C12.7357163,181 10.0830756,178.938493 8.64689894,175.184243 C8.16698954,173.929732 7.86172201,172.551702 7.70765643,171.140633 C7.60214226,170.17424 7.57997311,169.332785 7.60335044,168.705392 C7.61306141,168.529787 7.58264103,146.84412 7.58264103,146.84412 L13.9714139,139.184229 C15.1346741,137.789525 15.0378924,135.736778 13.7485707,134.457707 L7,127.762791 L7,3.50000001 C7,1.56700339 5.43299662,1.3553958e-08 3.5,1.3553958e-08 C1.56700338,1.3553958e-08 0,1.56700339 0,3.50000001 L0,129.220728 C0,130.153827 0.372594579,131.048297 1.0350234,131.70546 L6.53944002,137.166113 Z" id="Path-3" fill="#1787E5"></path>
                </g>
                <g id="header" fill="#0981E5">
                    <path d="M22,44 L214,44 L214,7 L22,7 L22,44 Z M15,6.00031854 C15,2.68643412 17.6799435,0 20.9982047,0 L215.001795,0 C218.314512,0 221,2.6880479 221,6.00031854 L221,44.9996815 C221,48.3135659 218.320056,51 215.001795,51 L20.9982047,51 C17.6854877,51 15,48.3119521 15,44.9996815 L15,6.00031854 Z" id="Rectangle"></path>
                    <path d="M221,37 L229,37 L229,14 L221,14 L221,37 Z M214,13.0064114 C214,9.68916199 216.686626,7 219.997062,7 L230.002938,7 C233.315024,7 236,9.69075263 236,13.0064114 L236,37.9935886 C236,41.310838 233.313374,44 230.002938,44 L219.997062,44 C216.684976,44 214,41.3092474 214,37.9935886 L214,13.0064114 Z" id="Rectangle-2"></path>
                    <path d="M7,37 L15,37 L15,14 L7,14 L7,37 Z M0,13.0064114 C0,9.68916199 2.68662575,7 5.99706188,7 L16.0029381,7 C19.3150239,7 22,9.69075263 22,13.0064114 L22,37.9935886 C22,41.310838 19.3133742,44 16.0029381,44 L5.99706188,44 C2.68497606,44 0,41.3092474 0,37.9935886 L0,13.0064114 Z" id="Rectangle-2"></path>
                </g>
                <g id="lines" transform="translate(50.000000, 76.000000)" fill="#1184E5">
                    <g id="row-1">
                        <path d="M55.5,0 L3.5,0 C1.56700338,0 0,1.56700338 0,3.5 C0,5.43299662 1.56700338,7 3.5,7 L55.5,7 C57.4329966,7 59,5.43299662 59,3.5 C59,1.56700338 57.4329966,0 55.5,0 Z" id="Line"></path>
                    </g>
                    <g id="row-2" transform="translate(0.000000, 18.000000)">
                        <path d="M29.5,0 L3.5,0 C1.56700338,0 0,1.56700338 0,3.5 C0,5.43299662 1.56700338,7 3.5,7 L29.5,7 C31.4329966,7 33,5.43299662 33,3.5 C33,1.56700338 31.4329966,0 29.5,0 Z" id="Line"></path>
                        <path d="M103.5,0 L45.5,0 C43.5670034,0 42,1.56700338 42,3.5 C42,5.43299662 43.5670034,7 45.5,7 L103.5,7 C105.432997,7 107,5.43299662 107,3.5 C107,1.56700338 105.432997,0 103.5,0 Z" id="Line"></path>
                    </g>
                    <g id="row-3" transform="translate(0.000000, 36.000000)">
                        <path d="M55.5,0 L3.5,0 C1.56700338,0 0,1.56700338 0,3.5 C0,5.43299662 1.56700338,7 3.5,7 L55.5,7 C57.4329966,7 59,5.43299662 59,3.5 C59,1.56700338 57.4329966,0 55.5,0 Z" id="Line"></path>
                        <path d="M97.5,0 L71.5,0 C69.5670034,0 68,1.56700338 68,3.5 C68,5.43299662 69.5670034,7 71.5,7 L97.5,7 C99.4329966,7 101,5.43299662 101,3.5 C101,1.56700338 99.4329966,0 97.5,0 Z" id="Line"></path>
                    </g>
                    <g id="row-4" transform="translate(0.000000, 55.000000)">
                        <path d="M83.5,0 L57.5,0 C55.5670034,0 54,1.56700338 54,3.5 C54,5.43299662 55.5670034,7 57.5,7 L83.5,7 C85.4329966,7 87,5.43299662 87,3.5 C87,1.56700338 85.4329966,0 83.5,0 Z" id="Line"></path>
                        <path d="M14.5,0 L3.5,0 C1.56700338,0 0,1.56700338 0,3.5 C0,5.43299662 1.56700338,7 3.5,7 L14.5,7 C16.4329966,7 18,5.43299662 18,3.5 C18,1.56700338 16.4329966,0 14.5,0 Z" id="Line"></path>
                        <path d="M41.5,0 L30.5,0 C28.5670034,0 27,1.56700338 27,3.5 C27,5.43299662 28.5670034,7 30.5,7 L41.5,7 C43.4329966,7 45,5.43299662 45,3.5 C45,1.56700338 43.4329966,0 41.5,0 Z" id="Line"></path>
                    </g>
                    <g id="row-5" transform="translate(0.000000, 73.000000)">
                        <path d="M56.5,0 L45.5,0 C43.5670034,0 42,1.56700338 42,3.5 C42,5.43299662 43.5670034,7 45.5,7 L56.5,7 C58.4329966,7 60,5.43299662 60,3.5 C60,1.56700338 58.4329966,0 56.5,0 Z" id="Line"></path>
                        <path d="M29.5,0 L3.5,0 C1.56700338,0 0,1.56700338 0,3.5 C0,5.43299662 1.56700338,7 3.5,7 L29.5,7 C31.4329966,7 33,5.43299662 33,3.5 C33,1.56700338 31.4329966,0 29.5,0 Z" id="Line"></path>
                        <path d="M124.5,0 L72.5,0 C70.5670034,0 69,1.56700338 69,3.5 C69,5.43299662 70.5670034,7 72.5,7 L124.5,7 C126.432997,7 128,5.43299662 128,3.5 C128,1.56700338 126.432997,0 124.5,0 Z" id="Line"></path>
                    </g>
                    <g id="row-6" transform="translate(0.000000, 91.000000)">
                        <path d="M29.5,0 L3.5,0 C1.56700338,0 0,1.56700338 0,3.5 C0,5.43299662 1.56700338,7 3.5,7 L29.5,7 C31.4329966,7 33,5.43299662 33,3.5 C33,1.56700338 31.4329966,0 29.5,0 Z" id="Line"></path>
                    </g>
                </g>
            </g>
        </g>
    </g>
</svg>
