<?xml version="1.0" encoding="utf-8"?>
<!-- Generator: Adobe Illustrator 15.0.0, SVG Export Plug-In . SVG Version: 6.00 Build 0)  -->
<!DOCTYPE svg PUBLIC "-//W3C//DTD SVG 1.1//EN" "http://www.w3.org/Graphics/SVG/1.1/DTD/svg11.dtd">
<svg version="1.1" id="Ebene_1" xmlns="http://www.w3.org/2000/svg" xmlns:xlink="http://www.w3.org/1999/xlink" x="0px" y="0px"
	 width="880px" height="150px" viewBox="0 0 880 150" enable-background="new 0 0 880 150" xml:space="preserve">
<g>
	<g>
		<path d="M346.907,133.726l-2.109-64.951l-0.791-25.928l-5.537,17.578l-12.744,39.111H312.19l-11.514-39.111l-4.834-17.578
			l-0.615,25.4l-1.934,65.479h-18.369l5.625-114.873h24.434l10.107,32.607l4.834,18.369l4.834-17.314l10.635-33.662h24.873
			l5.713,114.873H346.907z"/>
		<path d="M455.804,132.847c-3.867,0.879-7.765,1.582-11.689,2.109c-3.926,0.527-7.646,0.791-11.162,0.791
			c-5.859,0-10.914-0.615-15.161-1.846c-4.249-1.23-7.765-3.105-10.547-5.625c-2.784-2.519-4.834-5.727-6.152-9.624
			c-1.318-3.896-1.978-8.539-1.978-13.931V61.128H375.12V44.429h23.994V21.577l21.973-5.713v28.564h34.717v16.699h-34.717v42.012
			c0,5.098,1.172,8.951,3.516,11.558c2.343,2.607,6.27,3.911,11.777,3.911c3.516,0,6.943-0.293,10.283-0.879
			c3.34-0.585,6.386-1.26,9.141-2.021V132.847z"/>
		<path d="M509.944,61.128H484.72V44.429h47.197v72.598h25.752v16.699h-76.025v-16.699h28.301V61.128z M533.675,19.995
			c0,1.934-0.352,3.75-1.055,5.449c-0.703,1.7-1.686,3.179-2.944,4.438c-1.261,1.261-2.739,2.256-4.438,2.988
			c-1.7,0.733-3.546,1.099-5.537,1.099c-1.992,0-3.854-0.365-5.581-1.099c-1.729-0.732-3.224-1.728-4.482-2.988
			c-1.261-1.26-2.241-2.738-2.944-4.438c-0.703-1.699-1.055-3.516-1.055-5.449s0.352-3.749,1.055-5.449
			c0.703-1.699,1.684-3.193,2.944-4.482c1.259-1.288,2.753-2.299,4.482-3.032c1.728-0.732,3.589-1.099,5.581-1.099
			c1.991,0,3.837,0.366,5.537,1.099c1.699,0.733,3.178,1.744,4.438,3.032c1.259,1.289,2.241,2.783,2.944,4.482
			C533.323,16.246,533.675,18.062,533.675,19.995z"/>
		<path d="M643.099,133.726v-60.82c0-2.227-0.059-4.175-0.176-5.845c-0.118-1.67-0.352-3.062-0.703-4.175
			c-0.352-1.112-0.865-1.947-1.538-2.505c-0.674-0.557-1.597-0.835-2.769-0.835c-1.816,0-3.604,1.23-5.361,3.691
			s-3.75,6.65-5.977,12.568v57.92h-18.369v-60.82c0-2.227-0.059-4.175-0.176-5.845c-0.118-1.67-0.352-3.062-0.703-4.175
			c-0.352-1.112-0.879-1.947-1.582-2.505c-0.703-0.557-1.641-0.835-2.812-0.835c-1.524,0-3.223,1.23-5.098,3.691
			c-1.876,2.461-3.955,6.65-6.24,12.568v57.92H573.05V44.429h15.908l0.352,13.008c1.288-2.637,2.578-4.892,3.867-6.768
			c1.288-1.875,2.666-3.413,4.131-4.614c1.464-1.2,3.032-2.065,4.702-2.593s3.56-0.791,5.669-0.791
			c4.979,0,8.774,1.305,11.382,3.911c2.606,2.607,4.087,6.227,4.438,10.854c1.406-2.637,2.798-4.892,4.175-6.768
			c1.376-1.875,2.812-3.413,4.307-4.614c1.494-1.2,3.105-2.065,4.834-2.593c1.728-0.527,3.647-0.791,5.757-0.791
			c6.504,0,11.308,2.271,14.414,6.812c3.105,4.541,4.658,11.265,4.658,20.171v64.072H643.099z"/>
		<path d="M756.829,82.222c0,1.465-0.044,3.37-0.132,5.713c-0.088,2.344-0.22,4.541-0.396,6.592h-58.711
			c0,3.926,0.601,7.383,1.802,10.371c1.2,2.988,2.9,5.493,5.098,7.515s4.834,3.56,7.91,4.614s6.489,1.582,10.239,1.582
			c4.336,0,8.979-0.337,13.931-1.011c4.951-0.673,10.093-1.771,15.425-3.296v17.051c-2.285,0.646-4.776,1.23-7.471,1.758
			c-2.695,0.527-5.449,0.996-8.262,1.406c-2.812,0.409-5.655,0.717-8.525,0.923c-2.871,0.205-5.655,0.308-8.35,0.308
			c-6.798,0-12.891-0.967-18.281-2.9c-5.392-1.934-9.962-4.79-13.711-8.569c-3.75-3.779-6.622-8.451-8.613-14.019
			c-1.992-5.566-2.988-12.011-2.988-19.336c0-7.265,0.996-13.872,2.988-19.819c1.991-5.946,4.804-11.044,8.438-15.293
			c3.633-4.248,8.042-7.528,13.228-9.844c5.186-2.314,10.972-3.472,17.358-3.472c6.328,0,11.923,0.981,16.787,2.944
			c4.863,1.964,8.935,4.702,12.217,8.218c3.281,3.516,5.771,7.705,7.471,12.568C755.979,71.09,756.829,76.421,756.829,82.222z
			 M735.032,79.146c0.058-3.516-0.382-6.577-1.318-9.185c-0.938-2.606-2.212-4.76-3.823-6.46c-1.612-1.699-3.486-2.958-5.625-3.779
			c-2.14-0.82-4.438-1.23-6.899-1.23c-5.392,0-9.814,1.802-13.271,5.405c-3.458,3.604-5.508,8.688-6.152,15.249H735.032z"/>
		<path d="M835.491,79.146c0.117-3.34-0.044-6.182-0.483-8.525c-0.439-2.343-1.143-4.276-2.109-5.801
			c-0.967-1.523-2.153-2.637-3.56-3.34s-3.019-1.055-4.834-1.055c-3.164,0-6.431,1.305-9.8,3.911
			c-3.37,2.607-7.075,6.899-11.118,12.876v56.514h-21.973V44.429h19.424l0.791,13.008c1.464-2.285,3.12-4.336,4.966-6.152
			c1.846-1.815,3.896-3.384,6.152-4.702c2.255-1.318,4.76-2.329,7.515-3.032c2.754-0.703,5.771-1.055,9.053-1.055
			c4.512,0,8.511,0.777,11.997,2.329c3.485,1.553,6.416,3.854,8.789,6.899c2.373,3.047,4.131,6.87,5.273,11.47
			c1.143,4.601,1.626,9.918,1.45,15.952H835.491z"/>
	</g>
	<g>
		<g>
			<path fill="#FFBE41" d="M195.856,124.064c-27.605,0-50.064-22.459-50.064-50.064s22.459-50.064,50.064-50.064
				S245.921,46.395,245.921,74S223.462,124.064,195.856,124.064z"/>
			<path fill="#FFFFFF" d="M195.856,32.436c22.919,0,41.564,18.646,41.564,41.564c0,22.919-18.646,41.564-41.564,41.564
				S154.292,96.919,154.292,74C154.292,51.082,172.938,32.436,195.856,32.436 M195.856,15.436c-32.344,0-58.564,26.22-58.564,58.564
				c0,32.344,26.22,58.564,58.564,58.564c32.344,0,58.564-26.22,58.564-58.564C254.421,41.656,228.2,15.436,195.856,15.436
				L195.856,15.436z"/>
		</g>
		<circle fill="none" stroke="#000000" stroke-width="15" stroke-miterlimit="10" cx="195.856" cy="74" r="58.564"/>
		<g>
			
				<line fill="#FFFFFF" stroke="#000000" stroke-width="11" stroke-linecap="round" stroke-linejoin="round" stroke-miterlimit="10" x1="195.47" y1="48.5" x2="195.47" y2="74.5"/>
			
				<line fill="#FFFFFF" stroke="#000000" stroke-width="11" stroke-linecap="round" stroke-linejoin="round" stroke-miterlimit="10" x1="221.97" y1="75" x2="195.97" y2="75"/>
		</g>
	</g>
	<g>
		<path d="M114.649,74.839c0,8.907-1.099,16.993-3.296,24.258c-2.197,7.266-5.625,13.462-10.283,18.589
			c-4.658,5.128-10.621,9.083-17.886,11.865c-7.266,2.783-15.967,4.175-26.104,4.175h-29.18V18.853h34.014
			c8.789,0,16.479,1.099,23.071,3.296s12.085,5.581,16.479,10.151s7.69,10.371,9.888,17.402S114.649,65.113,114.649,74.839z
			 M91.446,76.245c0-6.21-0.498-11.747-1.494-16.611c-0.997-4.863-2.681-8.979-5.054-12.349c-2.373-3.369-5.552-5.933-9.536-7.69
			c-3.985-1.758-8.936-2.637-14.854-2.637H49.522v78.662h9.492c10.604,0,18.662-3.164,24.17-9.492
			C88.691,99.8,91.446,89.839,91.446,76.245z"/>
	</g>
</g>
</svg>
